<?xml version="1.0" standalone="no"?>
  <!DOCTYPE svg PUBLIC "-//W3C//DTD SVG 1.1//EN" "http://www.w3.org/Graphics/SVG/1.1/DTD/svg11.dtd" >
  <svg>
  <metadata>
  Created by font-carrier
  </metadata>
  <defs>
  <font id="MarkerFeltWidePlainRusby" horiz-adv-x="1000" vert-adv-y="1000" >
    <font-face
      
      font-family="Marker Felt Wide Plain [Rus by"
      
      font-weight="400"
      
      font-stretch="normal"
      
      units-per-em="1000"
      
      ascent="891"
      
      descent="-200"
      
    />
      <missing-glyph />

      

      
      <glyph glyph-name="uni21" unicode="&#x21;" d="M165-59Q153-62 94.50-38Q36-14 28-2Q20 10 20 17Q20 22 23.50 29.50Q27 37 30 43Q33 49 34 59Q35 69 36 78Q37 82 35.50 101Q34 120 34 128L36 162Q38 177 46 187Q54 197 66 197Q94 197 144 176Q194 155 197 146Q200 137 200 126Q200 105 198 83Q196 61 194 30Q194 22 194 15Q194 8 195 2Q195-6 192.50-20Q190-34 181.50-45.50Q173-57 165-59M179 247Q176 246 169 246Q140 246 96 269Q52 292 34.50 312Q17 332 17 343Q17 350 20 358.50Q23 367 24 371Q25 375 30.50 388Q36 401 36 408L36 786Q36 797 45 807.50Q54 818 65 821Q76 824 83 824Q111 824 147 812Q183 800 189 790.50Q195 781 195 767Q195 757 194.50 748Q194 739 194 732L194 324Q194 317 196 306Q198 295 198 288Q198 274 193 261.50Q188 249 179 247Z"  horiz-adv-x="222" vert-adv-y="1000"  />

      
      <glyph glyph-name="uni22" unicode="&#x22;" d="M179 547Q176 546 169 546Q142 546 104 568Q66 590 47.50 611Q29 632 29 643Q29 650 32 658.50Q35 667 36 671Q37 675 42.50 688Q48 701 48 708L48 786Q48 797 57 807.50Q66 818 77 821Q88 824 95 824Q120 824 151.50 812Q183 800 189 790.50Q195 781 195 767Q195 757 194.50 748Q194 739 194 732L194 624Q194 617 196 606Q198 595 198 588Q198 574 193 561.50Q188 549 179 547M395 547Q392 546 385 546Q358 546 320 568Q282 590 263.50 611Q245 632 245 643Q245 650 248 658.50Q251 667 252 671Q253 675 258.50 688Q264 701 264 708L264 786Q264 797 273 807.50Q282 818 293 821Q304 824 311 824Q336 824 367.50 812Q399 800 405 790.50Q411 781 411 767Q411 757 410.50 748Q410 739 410 732L410 624Q410 617 412 606Q414 595 414 588Q414 574 409 561.50Q404 549 395 547Z"  horiz-adv-x="450" vert-adv-y="1000"  />

      
      <glyph glyph-name="uni23" unicode="&#x23;" d="M218 456Q174 456 163 453Q154 453 138 446.50Q122 440 115 440Q102 440 91 448Q80 456 56.50 501Q33 546 36 564Q38 577 46 582Q54 587 73 591Q92 595 218 595L218 624Q218 639 215 653.50Q212 668 209 687Q209 704 213 717Q217 730 224.50 732.50Q232 735 241 735Q269 735 307.50 723Q346 711 360 694Q365 686 365 597L413 597Q413 650 415 684Q417 718 423.50 727Q430 736 455 736Q476 736 506.50 726.50Q537 717 561 705Q570 702 570 688Q569 675 569 668Q569 660 563.50 650Q558 640 558 633L558 598L613 599Q622 599 633 604.50Q644 610 649 610Q664 612 671 612Q682 612 689.50 596.50Q697 581 707 549.50Q717 518 717 496Q717 471 708.50 464.50Q700 458 663 457Q626 456 557 456L556 407Q613 407 642 406Q671 405 681 397Q691 389 703.50 348.50Q716 308 716 282Q716 274 713.50 266.50Q711 259 696.50 254.50Q682 250 667 250Q660 250 636.50 255Q613 260 605 260L555 260Q555 113 550.50 93Q546 73 541 65Q536 57 522 55Q503 52 458.50 75Q414 98 406.50 108.50Q399 119 399 136Q399 144 405.50 159Q412 174 412 182L415 260L358 260L355 178Q355 170 356 153Q357 136 357 130Q357 121 355 112.50Q353 104 339.50 93.50Q326 83 308 83Q300 83 285.50 93.50Q271 104 258 115Q231 128 215.50 137.50Q200 147 200 166Q199 175 208 192Q217 209 218 214L218 260L195 260Q188 259 171 250Q154 241 145 241Q128 241 116.50 260.50Q105 280 95 300Q85 313 74.50 327Q64 341 64 350Q63 366 74 380.50Q85 395 94 396.50Q103 398 113 398Q118 398 133.50 397Q149 396 159 396L218 398L218 456M414 456L364 456L362 403L414 405L414 456Z"  horiz-adv-x="750" vert-adv-y="1000"  />

      
      <glyph glyph-name="uni24" unicode="&#x24;" d="M160 128Q143 128 121 141.50Q99 155 92 165Q85 175 85 199Q85 224 96.50 245Q108 266 139 266Q165 266 176.50 240.50Q188 215 188 180Q188 168 187 158.50Q186 149 181.50 138.50Q177 128 160 128M159 289Q110 289 70 318.50Q30 348 19 380Q16 388 30.50 394Q45 400 63 400Q79 400 87.50 396.50Q96 393 104 378.50Q112 364 122 362Q131 361 140.50 380.50Q150 400 153 422Q155 432 81 472.50Q7 513 7 558Q7 610 56 653Q105 696 154 696Q176 696 203.50 656.50Q231 617 228 600Q223 574 194 574Q185 574 179 575Q173 576 162 586.50Q151 597 142 597Q126 597 112 574Q98 551 105 541Q107 539 175 505Q243 471 243 414Q243 370 220.50 329.50Q198 289 159 289M139 710Q122 710 98.50 721Q75 732 70 740Q65 748 65 762Q65 780 73.50 794Q82 808 93 813.50Q104 819 121 819Q146 819 153 808.50Q160 798 165.50 778.50Q171 759 171 747Q171 737 166.50 729.50Q162 722 155 716Q148 710 139 710Z"  horiz-adv-x="258" vert-adv-y="1000"  />

      
      <glyph glyph-name="uni25" unicode="&#x25;" d="M154-25Q115-10 70 26.50Q25 63 20.50 72Q16 81 16 88Q16 94 22 105Q28 116 47 151Q66 186 162 333Q258 480 345 608.50Q432 737 433 737Q437 746 443 762Q449 778 462.50 789Q476 800 493 800L504 798Q541 787 584 752Q627 717 622 703Q608 688 594.50 673Q581 658 568 638Q513 572 428 439Q343 306 289 215Q235 124 216 92Q197 60 195.50 43Q194 26 190 13.50Q186 1 174.50-14Q163-29 154-25M141 514Q41 514 26 568.50Q11 623 11 637Q11 693 71 754Q131 815 195 815Q242 815 266 786Q290 757 298.50 733Q307 709 307 686Q307 619 256.50 566.50Q206 514 141 514M455-32Q434-32 406.50-10Q379 12 367 19.50Q355 27 337 60Q319 93 319 126Q319 173 378.50 235.50Q438 298 505 298Q528 298 545 293Q562 288 583 272.50Q604 257 614.50 232.50Q625 208 625 178Q625 105 573 36.50Q521-32 455-32M114 600Q120 594 127 594Q152 594 185.50 639.50Q219 685 219 715Q219 726 213 732Q203 742 177 719.50Q151 697 130 674.50Q109 652 109 617Q109 605 114 600M429 57Q434 54 438 54Q462 54 495.50 101.50Q529 149 529 184Q529 203 517 212Q509 218 487 201.50Q465 185 451 165.50Q437 146 428.50 123.50Q420 101 420 82Q420 63 429 57Z"  horiz-adv-x="630" vert-adv-y="1000"  />

      
      <glyph glyph-name="uni26" unicode="&#x26;" d="M238-28Q202-28 171-14.50Q140-1 101 27Q62 55 45 73Q28 91 18.50 115Q9 139 9 156Q9 207 50 256Q91 305 138 354Q69 390 44.50 411.50Q20 433 20 493Q20 520 80 597.50Q140 675 211.50 739.50Q283 804 318 804Q381 804 442.50 742.50Q504 681 504 645Q506 628 493 614Q480 600 462 600Q453 600 425 629Q397 658 379 658Q353 658 268.50 570.50Q184 483 195 467Q199 462 246 483.50Q293 505 313 501Q335 497 375 464.50Q415 432 416.50 417Q418 402 420 391Q420 375 374 352Q328 329 240 231.50Q152 134 168 108Q174 99 188 99Q225 99 291.50 150Q358 201 372 240Q377 253 360.50 270.50Q344 288 347 300Q355 330 393.50 336Q432 342 469 347Q501 357 521 363Q541 369 555 369Q565 369 580 360.50Q595 352 615.50 299Q636 246 630 228Q623 204 596 199Q579 201 572 201Q564 201 528.50 164Q493 127 428 59Q331-28 238-28Z"  horiz-adv-x="630" vert-adv-y="1000"  />

      
      <glyph glyph-name="uni27" unicode="&#x27;" d="M179 547Q176 546 169 546Q142 546 104 568Q66 590 47.50 611Q29 632 29 643Q29 650 32 658.50Q35 667 36 671Q37 675 42.50 688Q48 701 48 708L48 786Q48 797 57 807.50Q66 818 77 821Q88 824 95 824Q120 824 151.50 812Q183 800 189 790.50Q195 781 195 767Q195 757 194.50 748Q194 739 194 732L194 624Q194 617 196 606Q198 595 198 588Q198 574 193 561.50Q188 549 179 547Z"  horiz-adv-x="222" vert-adv-y="1000"  />

      
      <glyph glyph-name="uni28" unicode="&#x28;" d="M268-81Q168-45 98 110.50Q28 266 28 446Q28 559 58.50 655Q89 751 130 794.50Q171 838 187 838Q189 838 197 836Q217 828 253.50 796Q290 764 297.50 753Q305 742 305 735Q305 727 301 716.50Q297 706 267.50 658.50Q238 611 212.50 518Q187 425 187 338Q187 211 228 107.50Q269 4 293-9Q317-22 317-40Q316-53 297-69Q278-85 268-81Z"  horiz-adv-x="336" vert-adv-y="1000"  />

      
      <glyph glyph-name="uni29" unicode="&#x29;" d="M68 845Q168 809 238 653.50Q308 498 308 318Q308 205 277.50 109Q247 13 206-30.50Q165-74 149-74Q147-74 139-72Q119-64 82.50-32Q46 0 38.50 11Q31 22 31 29Q31 37 35 47.50Q39 58 68.50 105.50Q98 153 123.50 246Q149 339 149 426Q149 553 108 656.50Q67 760 43 773Q19 786 19 804Q20 817 39 833Q58 849 68 845Z"  horiz-adv-x="336" vert-adv-y="1000"  />

      
      <glyph glyph-name="uni2a" unicode="&#x2a;" d="M120 325Q114 325 104 320.50Q94 316 90 316Q84 316 72.50 327Q61 338 52.50 360Q44 382 44 406Q44 420 47.50 431.50Q51 443 54.50 445.50Q58 448 69.50 452.50Q81 457 94 457Q107 457 116 457L172 457L130 527Q122 532 114.50 537Q107 542 109 550Q114 576 131 600.50Q148 625 165 634.50Q182 644 192 644Q201 644 205.50 642Q210 640 219 634.50Q228 629 264 575.50Q300 522 316 494Q337 534 363 581.50Q389 629 401 641Q413 653 429 653Q438 653 452 648.50Q466 644 490 611Q514 578 514 562Q514 556 503.50 535.50Q493 515 457 457L511 457Q534 457 544 455.50Q554 454 577 431Q600 408 600 354Q599 345 599 341Q598 329 589 323.50Q580 318 566 316Q557 315 542 319.50Q527 324 526 324L457 325L501 258Q508 253 514.50 246.50Q521 240 519 233Q514 209 478.50 177.50Q443 146 420 140Q410 137 402.50 142Q395 147 384.50 159Q374 171 347.50 222.50Q321 274 314 286L225 168Q223 159 220.50 150.50Q218 142 210 140Q195 136 157.50 160Q120 184 107 215Q104 223 109 236.50Q114 250 172 325L120 325Z"  horiz-adv-x="642" vert-adv-y="1000"  />

      
      <glyph glyph-name="uni2b" unicode="&#x2b;" d="M282 192Q272 195 254 214.50Q236 234 230 240Q224 246 206.50 260Q189 274 186 282Q184 288 188 298Q192 308 192 312L192 371L126 366Q125 366 113 361.50Q101 357 96 360Q76 371 61 389Q46 407 28.50 437.50Q11 468 11 478Q11 480 14.50 492Q18 504 35.50 508Q53 512 81 512Q101 512 134 515Q167 518 187 518L187 703Q187 711 203.50 722.50Q220 734 237 736Q250 738 287 694Q324 650 330.50 629.50Q337 609 337 597Q334 577 332 562Q330 547 330 525L400 525Q420 525 444.50 530Q469 535 474 534Q488 531 503.50 485Q519 439 519 408Q519 398 517 390Q515 382 502.50 378.50Q490 375 470 375L330 375L330 260Q330 253 335.50 242Q341 231 340 225Q339 210 325 200Q311 190 295 190Q290 190 282 192Z"  horiz-adv-x="546" vert-adv-y="1000"  />

      
      <glyph glyph-name="uni2c" unicode="&#x2c;" d="M121-122Q98-122 76.50-113.50Q55-105 38.50-95Q22-85 22-63Q22-50 25.50-44Q29-38 37-41Q43-43 49-43Q78-43 111.50-15Q145 13 145 51Q145 61 141.50 70.50Q138 80 138 89Q138 102 145.50 114.50Q153 127 162 130Q181 137 222.50 120.50Q264 104 271.50 91Q279 78 279 53Q279-7 233.50-64.50Q188-122 121-122Z"  horiz-adv-x="306" vert-adv-y="1000"  />

      
      <glyph glyph-name="uni2d" unicode="&#x2d;" d="M128 293Q109 293 97.50 314Q86 335 75 356Q64 370 52.50 385Q41 400 41 410Q41 428 53 443Q65 458 74 460Q83 462 94 462Q100 462 116.50 461Q133 460 143 460Q195 464 258 467Q321 470 344 470Q375 470 390 468.50Q405 467 416 458.50Q427 450 440.50 407Q454 364 454 335Q454 326 451 317Q448 308 431.50 304.50Q415 301 402 301Q394 301 372 307Q350 313 335 313L182 313Q172 313 156 303Q140 293 128 293Z"  horiz-adv-x="492" vert-adv-y="1000"  />

      
      <glyph glyph-name="uniad" unicode="&#xad;" d="M128 293Q109 293 97.50 314Q86 335 75 356Q64 370 52.50 385Q41 400 41 410Q41 428 53 443Q65 458 74 460Q83 462 94 462Q100 462 116.50 461Q133 460 143 460Q195 464 258 467Q321 470 344 470Q375 470 390 468.50Q405 467 416 458.50Q427 450 440.50 407Q454 364 454 335Q454 326 451 317Q448 308 431.50 304.50Q415 301 402 301Q394 301 372 307Q350 313 335 313L182 313Q172 313 156 303Q140 293 128 293Z"  horiz-adv-x="492" vert-adv-y="1000"  />

      
      <glyph glyph-name="uni2e" unicode="&#x2e;" d="M132-40Q117-46 66-22Q15 2 8 16Q4 25 21.50 69.50Q39 114 47.50 128Q56 142 73 142Q85 142 100.50 138Q116 134 133 130.50Q150 127 161.50 121.50Q173 116 176 104Q178 94 163 63Q148 32 148 18Q149 2 148-6Q146-24 142.50-30.50Q139-37 132-40Z"  horiz-adv-x="186" vert-adv-y="1000"  />

      
      <glyph glyph-name="uni2f" unicode="&#x2f;" d="M113-41Q96-39 54-6.50Q12 26 7.50 41Q3 56 3 61Q3 66 13 85.50Q23 105 115.50 258.50Q208 412 307 569.50Q406 727 452 785Q460 808 466.50 814Q473 820 481 824.50Q489 829 501 829Q507 829 514.50 827Q522 825 566 775.50Q610 726 601 719Q558 686 457 533Q356 380 260.50 216Q165 52 162 36Q157 29 157 16.50Q157 4 154-6.50Q151-17 138-30Q125-43 113-41Z"  horiz-adv-x="593" vert-adv-y="1000"  />

      
      <glyph glyph-name="uni30" unicode="&#x30;" d="M335-40Q328-42 315-42Q298-42 274-33Q250-24 228-17Q206-10 174 3.50Q142 17 115 26Q88 35 57 155Q26 275 26 427Q26 578 58 688.50Q90 799 156 822Q168 826 179.50 818.50Q191 811 196 813Q226 823 256 823Q294 823 351 805.50Q408 788 442 780.50Q476 773 503 683.50Q530 594 530 464Q530 282 478.50 131Q427-20 335-40M266 105Q305 105 328 221Q351 337 351 478Q351 583 338 651.50Q325 720 300 720Q252 720 228 621Q204 522 204 409Q204 315 224.50 210Q245 105 266 105Z"  horiz-adv-x="552" vert-adv-y="1000"  />

      
      <glyph glyph-name="uni31" unicode="&#x31;" d="M255-41Q240-41 177 2Q114 45 114 60Q114 67 117 78Q120 89 120 96L120 516Q120 539 72.50 549.50Q25 560 19.50 576.50Q14 593 14 603Q14 625 40 660.50Q66 696 72 708Q87 759 97 790Q107 821 127.50 825.50Q148 830 156 830Q198 830 243.50 802.50Q289 775 289 738L289 75Q289 65 298.50 49Q308 33 308 23Q308-3 293.50-22Q279-41 255-41Z"  horiz-adv-x="342" vert-adv-y="1000"  />

      
      <glyph glyph-name="uni32" unicode="&#x32;" d="M142-58Q128-58 110.50-47Q93-36 54-6Q34 6 14 19Q-7 35-7 54Q-7 60 93 196.50Q193 333 268.50 466.50Q344 600 344 694Q291 673 253.50 631Q216 589 188 550Q183 546 181 532Q179 518 172.50 509Q166 500 146 500Q128 500 104.50 511Q81 522 72 528Q63 534 32.50 551Q2 568 1 577Q-1 600 54 669Q109 738 182.50 791.50Q256 845 319 845Q346 845 368 827.50Q390 810 420 789Q450 768 472 747.50Q494 727 503.50 705Q513 683 513 665Q513 593 441.50 442.50Q370 292 289 179L375 209Q380 211 393 220.50Q406 230 415 229Q438 226 483 172Q528 118 528 102Q528 87 517.50 75.50Q507 64 491 59Q488 58 478 58.50Q468 59 463 59Q456 59 453 58Q435 58 334.50 28Q234-2 201.50-18Q169-34 160-42Q151-50 142-58Z"  horiz-adv-x="528" vert-adv-y="1000"  />

      
      <glyph glyph-name="uni33" unicode="&#x33;" d="M258-57Q226-57 128 22Q30 101 30 120Q30 143 52.50 161.50Q75 180 96 180Q110 180 143 143.50Q176 107 198 102Q239 93 307.50 182Q376 271 376 314Q376 322 372.50 325Q369 328 360 328Q343 328 323 322Q303 316 298 310Q296 310 292 303Q288 296 283.50 293Q279 290 272.50 286Q266 282 253 284Q236 286 198.50 316Q161 346 146.50 365Q132 384 132 395Q132 421 165 436.50Q198 452 263.50 519.50Q329 587 348 678Q308 669 259 603.50Q210 538 198 534Q179 528 125 559Q71 590 56 613Q52 619 53 623.50Q54 628 58.50 639.50Q63 651 69 657.50Q75 664 102.50 694.50Q130 725 165 760Q200 795 238 817.50Q276 840 318 840Q381 840 448.50 766.50Q516 693 516 628L516 618Q512 582 488.50 539.50Q465 497 425 450Q477 406 501.50 355.50Q526 305 526 253Q526 139 431.50 41Q337-57 258-57Z"  horiz-adv-x="546" vert-adv-y="1000"  />

      
      <glyph glyph-name="uni34" unicode="&#x34;" d="M484-69Q451-65 413-35Q375-5 358 15Q341 35 341 47Q342 57 342 62Q349 74 356 87L356 218Q233 179 191.50 167.50Q150 156 128 156Q103 156 55 188.50Q7 221-2 235Q-11 249-11 256Q-11 264-8.50 268.50Q-6 273 5 288.50Q16 304 27 314.50Q38 325 42 330.50Q46 336 141 487.50Q236 639 293.50 729Q351 819 364 827Q377 835 386 839Q395 843 408 843Q430 843 489.50 800.50Q549 758 553 739Q555 730 550 721.50Q545 713 533 696L533 424Q541 425 552.50 428Q564 431 569 431Q582 431 594.50 420Q607 409 640.50 357Q674 305 674 297Q674 286 665 277Q656 268 640 262Q624 256 614.50 255Q605 254 595 254L534 242L534 8Q534 2 535.50-8Q537-18 537-21Q537-41 519-56Q501-71 484-69M251 344L358 380L358 518L251 344Z"  horiz-adv-x="678" vert-adv-y="1000"  />

      
      <glyph glyph-name="uni35" unicode="&#x35;" d="M288-70Q237-70 133 3.50Q29 77 29 121Q29 141 42 159.50Q55 178 75 178Q89 178 105 169.50Q121 161 150 139Q179 117 198.50 96Q218 75 225 72Q282 103 330 190Q378 277 378 346Q378 360 375 374Q369 375 357 375Q325 375 304 363Q283 351 264.50 337Q246 323 234.50 309.50Q223 296 214 296Q192 296 138.50 321.50Q85 347 70.50 363Q56 379 56 391Q56 398 58.50 412Q61 426 61 431L61 732Q61 747 79.50 762Q98 777 120 781Q126 782 137.50 778.50Q149 775 151 775Q156 775 186 789Q216 803 297.50 823Q379 843 422 843Q435 845 448 847Q457 847 473.50 834Q490 821 523.50 778.50Q557 736 562 713Q564 701 550.50 685.50Q537 670 520 667Q508 665 482 675Q456 685 446.50 686Q437 687 425 687Q385 687 333 670Q281 653 237 617L237 508Q279 527 318 527Q375 527 458 463Q541 399 541 349Q541 194 462.50 62Q384-70 288-70Z"  horiz-adv-x="570" vert-adv-y="1000"  />

      
      <glyph glyph-name="uni36" unicode="&#x36;" d="M173 831Q189 839 212 839Q237 839 267 828.50Q297 818 359 788.50Q421 759 467.50 724Q514 689 519 639Q522 630 524.50 619.50Q527 609 527 596Q527 585 522 572.50Q517 560 503 550Q489 540 476 543Q424 553 391.50 566.50Q359 580 335 608Q334 641 329 674Q324 707 298 707Q251 707 228 633Q205 559 205 486Q232 506 260 527Q281 540 300 542Q334 542 351 535.50Q368 529 409.50 508.50Q451 488 478 475Q504 460 523.50 428Q543 396 543 327Q543 201 472 79Q401-43 305-43Q267-43 219-23Q171-3 145.50 23.50Q120 50 100.50 71.50Q81 93 66.50 131.50Q52 170 40.50 246Q29 322 29 408Q29 558 65.50 676.50Q102 795 173 831M365 410Q293 375 254 318Q215 261 215 189Q215 144 231 99Q270 107 300 143.50Q330 180 350.50 231.50Q371 283 371 347Q371 377 365 410Z"  horiz-adv-x="564" vert-adv-y="1000"  />

      
      <glyph glyph-name="uni37" unicode="&#x37;" d="M301-62Q285-69 229.50-50.50Q174-32 155-14Q136 4 136 25Q136 34 144.50 45Q153 56 162 91.50Q171 127 199 233.50Q227 340 264.50 474Q302 608 326 674L178 635Q169 628 159.50 621.50Q150 615 141 617Q121 620 67 653Q13 686 5.50 700.50Q-2 715-2 725Q-2 740 8 755Q18 770 31.50 776Q45 782 66.50 784Q88 786 109 788L394 839Q402 840 416.50 848.50Q431 857 442 855Q462 850 510.50 790Q559 730 556 713Q554 702 538 688.50Q522 675 516 667Q512 657 475 524Q438 391 389.50 214Q341 37 339.50 28.50Q338 20 337 3.50Q336-13 332-32Q328-51 301-62Z"  horiz-adv-x="558" vert-adv-y="1000"  />

      
      <glyph glyph-name="uni38" unicode="&#x38;" d="M218-59Q170-59 91 9Q12 77 12 137Q12 213 45.50 270.50Q79 328 150 381Q105 396 70.50 424.50Q36 453 36 507Q36 593 155 721Q274 849 366 849Q433 849 468 819Q505 774 532.50 741Q560 708 577 676.50Q594 645 594 610Q594 591 585 563Q576 535 554.50 509Q533 483 498 459Q560 418 598 371Q636 324 636 273Q636 168 492.50 54.50Q349-59 218-59M188 103Q194 102 207 102Q289 102 378.50 184.50Q468 267 468 327Q418 327 377 316Q336 305 292 274Q248 243 223.50 203Q199 163 188 103M204 483Q296 483 361 547Q426 611 426 681Q383 670 351.50 654Q320 638 287.50 609Q255 580 237 553Q219 526 204 483Z"  horiz-adv-x="654" vert-adv-y="1000"  />

      
      <glyph glyph-name="uni39" unicode="&#x39;" d="M381-37Q365-45 342-45Q317-45 287-34.50Q257-24 195 5.50Q133 35 86.50 70Q40 105 35 155Q32 163 29.50 173.50Q27 184 27 198Q27 208 32 221Q37 234 51 244Q65 254 78 251Q130 241 162.50 227.50Q195 214 219 186Q220 153 227 120Q234 87 266 87Q306 87 327.50 162.50Q349 238 349 308Q319 285 299 269.50Q279 254 254 252Q220 252 203 258.50Q186 265 144 285.50Q102 306 76 319Q50 334 30.50 366Q11 398 11 467Q11 593 82 715Q153 837 249 837Q287 837 335 817Q383 797 408 770.50Q433 744 453 724Q473 701 487.50 662.50Q502 624 513.50 548Q525 472 525 386Q525 236 488.50 117.50Q452-1 381-37M189 384Q261 419 300 476Q339 533 339 605Q339 650 323 695Q284 687 254 650.50Q224 614 203.50 562.50Q183 511 183 447Q183 417 189 384Z"  horiz-adv-x="540" vert-adv-y="1000"  />

      
      <glyph glyph-name="uni3a" unicode="&#x3a;" d="M144 410Q129 404 78 428Q27 452 20 466Q16 475 33.50 519.50Q51 564 59.50 578Q68 592 85 592Q97 592 112.50 588Q128 584 145 580.50Q162 577 173.50 571.50Q185 566 188 554Q190 544 175 513Q160 482 160 468Q161 452 160 444Q158 426 154.50 419.50Q151 413 144 410M144-50Q129-56 78-32Q27-8 20 6Q16 15 33.50 59.50Q51 104 59.50 118Q68 132 85 132Q97 132 112.50 128Q128 124 145 120.50Q162 117 173.50 111.50Q185 106 188 94Q190 84 175 53Q160 22 160 8Q161-8 160-16Q158-34 154.50-40.50Q151-47 144-50Z"  horiz-adv-x="220" vert-adv-y="1000"  />

      
      <glyph glyph-name="uni3b" unicode="&#x3b;" d="M37-153Q13-153-8.50-144.50Q-30-136-46-126Q-62-116-62-94Q-62-82-58.50-75.50Q-55-69-48-72Q-42-74-36-74Q-6-74 27.50-46Q61-18 61 20Q61 30 57.50 39.50Q54 49 54 58Q54 71 61.50 83.50Q69 96 78 99Q93 103 135 89.50Q177 76 186 61.50Q195 47 195 22Q195-38 149.50-95.50Q104-153 37-153M144 410Q129 404 78 428Q27 452 20 466Q16 475 33.50 519.50Q51 564 59.50 578Q68 592 85 592Q97 592 112.50 588Q128 584 145 580.50Q162 577 173.50 571.50Q185 566 188 554Q190 544 175 513Q160 482 160 468Q161 452 160 444Q158 426 154.50 419.50Q151 413 144 410Z"  horiz-adv-x="220" vert-adv-y="1000"  />

      
      <glyph glyph-name="uni3c" unicode="&#x3c;" d="M196 318Q193 317 189.50 317Q186 317 185 317Q173 317 160.50 321.50Q148 326 134 331Q120 336 110 339.50Q100 343 85 350Q57 359 39.50 426.50Q22 494 22 580Q22 663 40 725Q58 787 95 800Q101 803 108.50 799.50Q116 796 118 797Q135 803 151 803Q173 803 205.50 792Q238 781 256 777Q274 773 289.50 722.50Q305 672 305 599Q305 498 276.50 413.50Q248 329 196 318M157 401Q179 401 192 464.50Q205 528 205 609Q205 666 197.50 704.50Q190 743 176 743Q150 743 136 688Q122 633 122 571Q122 516 133.50 458.50Q145 401 157 401M502 318Q498 317 490 317Q478 317 465.50 321.50Q453 326 439.50 331Q426 336 416 339.50Q406 343 391 350Q363 359 345.50 426.50Q328 494 328 580Q328 663 346 725Q364 787 401 800Q406 803 411.50 801Q417 799 423 797Q440 803 456 803Q476 803 511 791.50Q546 780 563 776.50Q580 773 595.50 722.50Q611 672 611 600Q611 499 582.50 414Q554 329 502 318M463 401Q484 401 497 465Q510 529 510 610Q510 670 503.50 706.50Q497 743 482 743Q455 743 441.50 689.50Q428 636 428 571Q428 516 439.50 458.50Q451 401 463 401M233 141Q220 142 211.50 155.50Q203 169 196 183Q186 196 180 204.50Q174 213 174 219Q172 231 179.50 240.50Q187 250 198 254Q204 255 222 254Q240 253 242 253Q287 259 332 263.50Q377 268 399 268Q416 268 425 261Q434 254 444 219Q454 184 450 171Q447 161 438 158.50Q429 156 415 156Q413 156 397 159.50Q381 163 371 163L268 154Q260 154 249.50 147.50Q239 141 233 141Z"  horiz-adv-x="636" vert-adv-y="1000"  />

      
      <glyph glyph-name="uni3d" unicode="&#x3d;" d="M140 163Q121 163 109.50 184Q98 205 87 226Q76 240 64.50 255Q53 270 53 280Q53 298 65 313Q77 328 86 330Q95 332 106 332Q112 332 128.50 331Q145 330 155 330Q211 334 274.50 337.50Q338 341 365 341Q415 341 427 331.50Q439 322 452.50 279Q466 236 466 207Q466 198 463 189Q460 180 443.50 176.50Q427 173 414 173Q406 173 384 178Q362 183 347 183L194 183Q183 182 167 172.50Q151 163 140 163M108 377Q94 377 82 385Q70 393 45 441.50Q20 490 23 510Q25 524 33.50 529.50Q42 535 61.50 539Q81 543 173.50 544.50Q266 546 356 548Q365 548 376 554Q387 560 394 560Q410 562 417 562Q430 562 434 552Q448 526 457.50 494.50Q467 463 467 438Q467 411 457.50 403.50Q448 396 416 395Q384 394 363 394Q330 394 297.50 394Q265 394 233 395Q210 395 192 394.50Q174 394 160 391Q150 391 134 384Q118 377 108 377Z"  horiz-adv-x="510" vert-adv-y="1000"  />

      
      <glyph glyph-name="uni3e" unicode="&#x3e;" d="M218 306Q208 301 197 301Q179 301 161 308.50Q143 316 105 334Q67 352 47 372Q27 392 24 415Q22 419 21 425Q20 431 20 439Q20 443 22.50 450.50Q25 458 33.50 464Q42 470 49 468Q76 463 95 455Q114 447 127 431Q128 413 131.50 395Q135 377 151 377Q175 374 187.50 417Q200 460 200 500Q184 487 172.50 478.50Q161 470 147 468Q128 468 111 475Q89 486 75.50 492.50Q62 499 47.50 506.50Q33 514 21.50 533Q10 552 10 590Q10 659 50.50 728Q91 797 144 797Q165 797 192 785.50Q219 774 234.50 758Q250 742 260 730.50Q270 719 284.50 680.50Q299 642 299 544Q299 460 278.50 394Q258 328 218 306M110 542Q194 582 194 666Q194 691 185 717Q163 712 147.50 693.50Q132 675 119.50 644Q107 613 107 576Q107 560 110 542M526 306Q516 301 505 301Q487 301 469 308.50Q451 316 413 334Q375 352 355 372Q335 392 332 415Q330 419 329 425Q328 431 328 439Q328 443 330.50 450.50Q333 458 341.50 464Q350 470 357 468Q384 463 403 455Q422 447 435 431Q436 413 439.50 395Q443 377 459 377Q483 374 495.50 417Q508 460 508 500Q492 487 480.50 478.50Q469 470 455 468Q436 468 419 475Q397 486 383.50 492.50Q370 499 355.50 506.50Q341 514 330 532Q319 550 319 590Q319 660 359 728.50Q399 797 452 797Q473 797 500 785.50Q527 774 542.50 758Q558 742 568 730.50Q578 719 592.50 680.50Q607 642 607 544Q607 460 586.50 394Q566 328 526 306M418 542Q502 582 502 666Q502 691 493 717Q471 712 455.50 693.50Q440 675 427.50 644Q415 613 415 576Q415 560 418 542M221 126Q209 127 200.50 140.50Q192 154 184 168Q174 181 168 189.50Q162 198 162 204Q161 216 168 225.50Q175 235 186 239Q192 240 210 239Q228 238 230 238Q275 244 320 248.50Q365 253 387 253Q404 253 413 246Q422 239 432 204Q442 169 438 156Q435 147 425 143.50Q415 140 404 141Q402 141 386 144.50Q370 148 359 148L256 139Q250 139 238.50 132.50Q227 126 221 126Z"  horiz-adv-x="624" vert-adv-y="1000"  />

      
      <glyph glyph-name="uni3f" unicode="&#x3f;" d="M164-63Q139-58 111-36Q83-14 54 17Q49 22 51 26.50Q53 31 55 37Q57 43 67.50 70Q78 97 78 114Q78 127 91.50 135.50Q105 144 120 144Q143 144 184 111Q225 78 233 58Q237 49 227.50 35.50Q218 22 211 12Q204 2 202-9Q200-20 194.50-32Q189-44 181-54.50Q173-65 164-63M156 208Q137 212 114.50 232Q92 252 57 293Q54 298 54 303Q54 313 58.50 322.50Q63 332 70 342Q209 462 282 535Q355 608 355 654Q355 670 340.50 689.50Q326 709 287 709Q250 709 201 689.50Q152 670 109 646Q95 638 65.50 670Q36 702 25.50 719.50Q15 737 15 742Q15 749 18 755Q23 760 30 769.50Q37 779 107.50 805.50Q178 832 243 832Q270 832 293.50 827Q317 822 355.50 798.50Q394 775 422 724Q450 673 453.50 633Q457 593 457 579Q457 518 423 468.50Q389 419 334 372Q279 325 230 284Q214 269 206 259Q198 249 188.50 234Q179 219 173.50 212Q168 205 156 208Z"  horiz-adv-x="486" vert-adv-y="1000"  />

      
      <glyph glyph-name="uni41" unicode="&#x41;" d="M217 129Q206 99 195.50 69Q185 39 177 23Q173 6 169-10Q165-18 153-25Q138-33 73-5.50Q8 22 5 32Q1 47 29.50 117.50Q58 188 61 199Q51 209 45.50 218.50Q40 228 40 242Q41 249 41 252Q43 260 62 272Q81 284 102 295L231 736Q234 750 234 760Q234 772 233 780.50Q232 789 231 797Q231 808 238 813.50Q245 819 262 819Q309 819 396 794.50Q483 770 500 752Q500 696 521 552Q542 408 576 261.50Q610 115 647 41Q646 33 644 6Q642-21 635-30Q629-33 618-33Q584-33 534.50-16Q485 1 471 16Q457 31 446 93.50Q435 156 423 194Q384 189 312 166.50Q240 144 217 129M277 317Q297 325 323 332Q370 342 386 345Q374 400 363 456Q355 512 355 567Q336 521 307.50 430.50Q279 340 277 317Z"  horiz-adv-x="665" vert-adv-y="1000"  />

      
      <glyph glyph-name="uni42" unicode="&#x42;" d="M215-39Q183-34 108 6.50Q33 47 27 62Q23 71 27.50 84.50Q32 98 32 101L32 749Q32 757 44.50 761Q57 765 76 765Q85 765 92.50 765Q100 765 111 761Q158 792 229 814.50Q300 837 353 837Q383 837 398.50 828.50Q414 820 430.50 795.50Q447 771 458.50 760.50Q470 750 487.50 736.50Q505 723 508 711Q511 699 512.50 693.50Q514 688 514 678Q514 642 488.50 598.50Q463 555 409 507Q461 468 491.50 430.50Q522 393 525.50 372.50Q529 352 529 344Q529 336 529 328Q529 245 465 159.50Q401 74 321.50 15.50Q242-43 215-39M203 125Q265 142 326.50 229Q388 316 388 379L388 389Q364 389 298.50 363Q233 337 203 311L203 125M203 515Q268 566 314 619Q360 672 352 685Q349 689 341 689Q316 689 268.50 665.50Q221 642 203 619L203 515Z"  horiz-adv-x="552" vert-adv-y="1000"  />

      
      <glyph glyph-name="uni43" unicode="&#x43;" d="M308-36Q270-24 247.50-15Q225-6 167.50 17.50Q110 41 61.50 149Q13 257 13 397Q13 563 78 691.50Q143 820 244 820Q283 820 358.50 778.50Q434 737 455 701Q476 665 483.50 608.50Q491 552 491 515Q491 483 481 450Q471 417 452 420Q416 426 358 444Q300 462 296.50 473.50Q293 485 293 487Q293 496 301.50 510Q310 524 310 531Q312 545 313.50 568Q315 591 315 607Q315 633 312.50 650.50Q310 668 303 680Q242 635 214 540Q186 445 186 334Q186 250 201 184Q216 118 237 104Q247 97 292 143Q337 189 351 219Q357 241 361 255Q365 269 376 273Q394 279 463 244.50Q532 210 532 194Q532 182 527 173Q522 164 513 156Q483 94 421 28Q359-38 319-38Q316-38 313-38Q309-36 308-36Z"  horiz-adv-x="546" vert-adv-y="1000"  />

      
      <glyph glyph-name="uni44" unicode="&#x44;" d="M33 36L33 756Q36 782 63 787Q72 789 85.50 786Q99 783 113 780Q124 778 173.50 800.50Q223 823 258 823Q271 823 291 820Q311 817 334 805.50Q357 794 418 741Q479 688 495.50 635Q512 582 512 486Q512 376 460 262Q408 148 340.50 62Q273-24 250-33.50Q227-43 207-43Q165-43 111-16.50Q57 10 33 36M203 186Q271 225 315.50 366Q360 507 360 616Q360 671 350 676.50Q340 682 330 682Q306 682 270 669Q234 656 203 636L203 186Z"  horiz-adv-x="534" vert-adv-y="1000"  />

      
      <glyph glyph-name="uni45" unicode="&#x45;" d="M204-54Q111-16 72 1.50Q33 19 33 32L33 784Q33 791 56.50 803.50Q80 816 91 816Q99 816 139.50 801Q180 786 198 786Q228 786 275 812Q322 838 331 835Q354 828 402 783Q450 738 454 719Q456 710 435.50 688Q415 666 402 666Q390 668 379 671Q336 661 287.50 644.50Q239 628 203 594L203 431Q216 435 250 451.50Q284 468 296 468Q311 468 362 422Q413 376 413 359Q413 348 399 333Q385 318 376 315Q367 312 359 312Q348 312 337 312Q321 309 276 287Q231 265 203 248L203 143Q230 159 283.50 184.50Q337 210 348 210Q362 210 418.50 166.50Q475 123 473 111Q470 94 455.50 74.50Q441 55 430 51Q429 51 417.50 55.50Q406 60 402 58Q364 46 316 24Q268 2 204-54Z"  horiz-adv-x="474" vert-adv-y="1000"  />

      
      <glyph glyph-name="uni46" unicode="&#x46;" d="M171-53Q116-28 74.50 6Q33 40 33 66L33 727Q33 743 21.50 759.50Q10 776 12 784Q15 801 31 816Q47 831 69 831Q77 831 124 801.50Q171 772 183 770L293 815Q297 817 312.50 827.50Q328 838 341 838Q365 838 422 791.50Q479 745 479 723Q479 709 465 689.50Q451 670 431 668Q424 668 413 672Q402 676 396 676Q377 676 307.50 647Q238 618 203 590L203 407Q214 412 245.50 432.50Q277 453 295 453Q314 453 361.50 396.50Q409 340 409 318Q409 302 392.50 286.50Q376 271 361 267Q353 265 342 270Q331 275 325 272Q292 258 255.50 241Q219 224 203 209L203 63Q203 57 213.50 42Q224 27 224 15Q224-42 171-53Z"  horiz-adv-x="470" vert-adv-y="1000"  />

      
      <glyph glyph-name="uni47" unicode="&#x47;" d="M452 472Q438 466 374 485.50Q310 505 299.50 513.50Q289 522 285 532.50Q281 543 281 564Q281 569 286 576.50Q291 584 291 590L291 610Q291 633 288 647Q285 661 275 661Q240 661 215.50 549.50Q191 438 191 310Q191 225 204 166.50Q217 108 244 93Q260 84 287.50 147.50Q315 211 320 266Q304 278 263.50 295Q223 312 220 323Q216 339 230 366Q244 393 256.50 399.50Q269 406 280 408Q291 410 302 410Q317 409 325 409Q337 409 352 412Q367 415 401.50 428Q436 441 451 441Q459 441 473 438Q487 435 535.50 394.50Q584 354 583 341Q583 325 573 310Q563 295 548 290Q542 289 534 293.50Q526 298 521 298Q516 298 508 295Q479 184 463 134Q447 84 417.50 37.50Q388-9 357.50-23.50Q327-38 309-38Q292-38 267-29Q242-20 209-8.50Q176 3 134 18Q76 46 45.50 142.50Q15 239 15 367Q15 532 63 666Q111 800 154 809.50Q197 819 208 819Q258 819 332.50 786Q407 753 429.50 719Q452 685 460 648Q467 606 471.50 584.50Q476 563 479 544.50Q482 526 483 524Q484 511 473 493Q462 475 452 472Z"  horiz-adv-x="558" vert-adv-y="1000"  />

      
      <glyph glyph-name="uni48" unicode="&#x48;" d="M199-19Q183-25 109.50 0Q36 25 33 35.50Q30 46 30 56Q30 65 31 74Q32 83 33 92L33 732Q33 742 35 753Q37 764 40 778Q43 792 49.50 797.50Q56 803 66.50 809.50Q77 816 87 816Q126 816 173.50 803Q221 790 221 765Q221 754 212 726.50Q203 699 203 694L203 450L352 485Q352 550 352 604Q352 658 353 702L353 749Q352 760 352 762Q348 781 345 800Q350 817 378 823Q410 827 420 828Q443 831 485 815Q527 799 532 781Q534 773 527.50 755.50Q521 738 521 732L521 456Q533 443 563.50 415.50Q594 388 594 376Q594 364 571.50 343.50Q549 323 538 323Q524 323 521 322L521 70Q521 61 524.50 51Q528 41 531 33Q533 19 533 7Q533-13 529.50-25.50Q526-38 519-41.50Q512-45 501-45Q466-45 409-19Q352 7 344.50 21.50Q337 36 337 46Q337 56 336 60Q334 67 343 78.50Q352 90 352 94Q353 95 353 115.50Q353 136 353 151L353 171L353 189L353 205L353 219L353 231Q353 250 352.50 266.50Q352 283 352 296Q333 294 278.50 281Q224 268 203 261L203 58Q203 51 209.50 41.50Q216 32 217 27Q213 11 210-2.50Q207-16 199-19Z"  horiz-adv-x="606" vert-adv-y="1000"  />

      
      <glyph glyph-name="uni49" unicode="&#x49;" d="M47-8Q37 0 31 7.50Q25 15 25 28Q25 32 29 37Q33 42 33 54L33 759Q33 763 29.50 770.50Q26 778 26 784Q26 797 37.50 805Q49 813 57.50 815Q66 817 81 817Q119 817 161 810Q203 803 214 792Q225 781 225 771Q225 763 220 750.50Q215 738 213 730.50Q211 723 207 706.50Q203 690 203 675L203 61Q203 50 209 40Q215 30 215 24Q215-4 209.50-23.50Q204-43 191-46Q174-49 115-33Q56-17 47-8Z"  horiz-adv-x="240" vert-adv-y="1000"  />

      
      <glyph glyph-name="uni4a" unicode="&#x4a;" d="M356-36Q342-41 323-41Q301-41 271.50-32Q242-23 214-14Q158 0 147.50 3.50Q137 7 98.50 32.50Q60 58 36 161Q23 259 20.50 266Q18 273 14.50 283.50Q11 294 11 302Q11 308 16 328Q21 348 56 348Q88 348 139.50 337.50Q191 327 198.50 312.50Q206 298 206 290Q206 283 205 276Q204 269 203 262Q203 255 204 252Q204 205 217.50 153.50Q231 102 246 102Q262 102 270.50 178.50Q279 255 282 375.50Q285 496 285 595L285 621L285 642L285 660L285 675L285 687Q285 705 284.50 720.50Q284 736 284 749Q284 756 280 767Q276 778 276 780Q276 794 291 808Q306 822 322 822Q359 822 416 812.50Q473 803 477 787.50Q481 772 481 755Q481 731 476 703Q476 682 477 621Q478 560 478 536Q478 399 469.50 281Q461 163 434 72Q407-19 356-36Z"  horiz-adv-x="510" vert-adv-y="1000"  />

      
      <glyph glyph-name="uni4b" unicode="&#x4b;" d="M199-40Q188-46 166-46Q121-46 77-28.50Q33-11 33 16L33 748Q33 767 46 790.50Q59 814 75 820Q94 827 156.50 803Q219 779 225 762Q228 753 215 680Q202 607 202 575Q202 559 203 552L375 816Q389 838 413 838Q438 838 490.50 804Q543 770 543 738Q543 729 484 653Q425 577 387 525.50Q349 474 305 400L507 168Q514 160 537.50 155.50Q561 151 561 140Q561 113 524.50 42Q488-29 463-26Q440-23 409.50 10.50Q379 44 303.50 133.50Q228 223 203 240L203 56Q203 50 209.50 34.50Q216 19 216 15Q216-8 213-21Q210-34 199-40Z"  horiz-adv-x="588" vert-adv-y="1000"  />

      
      <glyph glyph-name="uni4c" unicode="&#x4c;" d="M217-38Q202-43 137-26Q72-9 50.50 9Q29 27 29 52Q29 57 31 71L33 96L33 768Q31 777 24.50 784Q18 791 19 797Q19 805 30 813.50Q41 822 54 825Q75 830 150 808.50Q225 787 225 756Q225 748 214 732Q203 716 203 708L203 155L307 200Q310 201 321 209.50Q332 218 343 218Q356 218 416 174.50Q476 131 473 117Q467 97 458 81.50Q449 66 440 62Q431 58 422 58Q409 60 403 60Q400 60 394 58L246-5Q239-8 231.50-22Q224-36 217-38Z"  horiz-adv-x="492" vert-adv-y="1000"  />

      
      <glyph glyph-name="uni4d" unicode="&#x4d;" d="M211-37Q206-41 187-41Q148-41 96.50-28Q45-15 37.50-3.50Q30 8 30 17Q30 21 33.50 35.50Q37 50 37 59L37 768Q37 781 46.50 796Q56 811 70 816Q88 823 203.50 792Q319 761 324 747Q329 733 329 724Q329 716 328 707Q327 698 326 689Q326 678 328 673L463 310Q496 413 534.50 559Q573 705 590.50 758Q608 811 621.50 814.50Q635 818 642 818Q659 818 706 807.50Q753 797 759 797Q817 797 857 788.50Q897 780 901 762.50Q905 745 905 740Q905 729 900 711Q895 693 895 684L895 72Q895 64 907 42Q919 20 918 12Q914-12 910-22.50Q906-33 898.50-35Q891-37 883-37Q847-37 788-19Q729-1 722.50 12Q716 25 716 34Q716 40 719 53Q722 66 722 75L722 529Q700 487 672 392Q644 297 626.50 227.50Q609 158 599 115Q596 105 600.50 76.50Q605 48 605 46Q605 15 601.50 0Q598-15 585-18.50Q572-22 545-22Q494-22 444-11.50Q394-1 377.50 14.50Q361 30 361 42Q363 58 363 66Q363 70 353.50 99.50Q344 129 317.50 210.50Q291 292 255.50 393.50Q220 495 204 523L204 125Q204 113 213 86.50Q222 60 223 53Q224 46 225 38.50Q226 31 226 18Q226-2 222.50-17Q219-32 211-37Z"  horiz-adv-x="942" vert-adv-y="1000"  />

      
      <glyph glyph-name="uni4e" unicode="&#x4e;" d="M207-17Q202-21 187-21Q150-21 89.50-1Q29 19 23 27.50Q17 36 17 49Q17 62 21 72Q27 82 30 88Q33 94 33 103L33 730Q33 737 30 749Q27 761 29 767Q38 800 56 807.50Q74 815 89 815Q131 815 176.50 804.50Q222 794 245 770Q268 746 328 556Q388 366 403 334Q403 407 403 490Q403 573 404 665L404 713Q403 725 403 727Q403 735 399 751.50Q395 768 395 772Q395 775 398 786Q401 797 425 805Q449 813 485 813Q504 813 545.50 800.50Q587 788 587 771Q587 760 581.50 746.50Q576 733 574 723L574 63Q574 54 575.50 44Q577 34 579 26Q580 18 580 13Q580-1 577-15.50Q574-30 568-35Q562-40 545.50-42Q529-44 513-44Q491-43 486-43Q454-40 406.50-25.50Q359-11 346.50 2.50Q334 16 334 30Q335 42 335 48Q335 52 326.50 75Q318 98 299 148.50Q280 199 246 285Q212 371 203 385L203 89Q203 81 210.50 66.50Q218 52 219.50 48.50Q221 45 222.50 36Q224 27 224 20Q224 7 220.50-2.50Q217-12 207-17Z"  horiz-adv-x="618" vert-adv-y="1000"  />

      
      <glyph glyph-name="uni4f" unicode="&#x4f;" d="M386-31Q386-32 382-32Q363-32 340.50-24.50Q318-17 296-10Q267-3 245.50 3.50Q224 10 173 32.50Q122 55 83.50 153Q45 251 45 380Q45 528 88.50 655.50Q132 783 167 797Q202 811 208 811Q217 811 230 807Q243 803 247 803Q271 810 296.50 817Q322 824 342 824Q355 824 418.50 816.50Q482 809 547.50 680Q613 551 613 382Q613 217 553.50 93Q494-31 386-31M376 703Q354 708 333.50 647.50Q313 587 296 580Q287 576 275.50 583Q264 590 259 591Q243 556 234 498Q225 440 225 376Q225 268 249.50 185.50Q274 103 320 94Q374 84 405 196.50Q436 309 436 457Q436 555 420.50 625Q405 695 376 703Z"  horiz-adv-x="654" vert-adv-y="1000"  />

      
      <glyph glyph-name="uni50" unicode="&#x50;" d="M184-46Q164-46 102-18.50Q40 9 30.50 23.50Q21 38 21 47Q21 56 23 62.50Q25 69 27 75Q29 81 31 90.50Q33 100 33 105L33 723Q26 745 20 768Q23 790 31.50 803Q40 816 56 816Q86 806 111.50 799Q137 792 153 792Q179 792 230.50 808.50Q282 825 296 825Q307 825 326 820.50Q345 816 372.50 790Q400 764 431.50 747.50Q463 731 486 685Q509 639 509 580Q509 466 437 346.50Q365 227 325.50 213.50Q286 200 277 200Q261 200 241 215.50Q221 231 203 246L203 76Q203 63 207 48.50Q211 34 215 22Q218 6 211-20Q204-46 184-46M203 359Q256 376 302.50 477Q349 578 349 645Q349 672 342 676Q335 680 330 680Q308 680 266.50 655Q225 630 203 600L203 359Z"  horiz-adv-x="506" vert-adv-y="1000"  />

      
      <glyph glyph-name="uni51" unicode="&#x51;" d="M372-25Q333-25 295-10Q257 5 244.50 7.50Q232 10 212.50 14.50Q193 19 149.50 44.50Q106 70 73.50 163Q41 256 41 374Q41 527 87.50 659Q134 791 198 810Q206 812 221.50 805Q237 798 240 798Q250 798 267 809.50Q284 821 292 822.50Q300 824 306 824Q346 824 402 798Q458 772 502.50 733.50Q547 695 568 617.50Q589 540 589 446Q589 360 574 284Q559 208 533 163Q538 158 543 154Q548 150 561 141Q575 136 588.50 130Q602 124 604 113Q609 82 571.50 31.50Q534-19 517.50-26Q501-33 492-33Q483-33 472.50-28.50Q462-24 450.50-11Q439 2 435 5Q425-6 406.50-15.50Q388-25 372-25M243 193Q272 250 305 280Q338 310 363 313Q371 313 379 305.50Q387 298 396 290Q409 317 415 355.50Q421 394 421 437Q421 536 396 624.50Q371 713 341 720Q325 724 322.50 719Q320 714 320 705Q320 698 295.50 672Q271 646 243 556Q215 466 215 366Q215 271 243 193M300 90Q312 90 316 98Q319 111 321 120Q314 132 303.50 140Q293 148 286 153L246 179Q261 137 273 113.50Q285 90 300 90Z"  horiz-adv-x="624" vert-adv-y="1000"  />

      
      <glyph glyph-name="uni52" unicode="&#x52;" d="M181-42Q150-45 89-31Q28-17 28 0Q28 6 30.50 15Q33 24 33 35L33 733Q33 739 30 745Q27 751 27 754Q27 765 39 774.50Q51 784 67 786Q81 788 123.50 777Q166 766 182 766Q192 766 252 793Q312 820 344 820Q357 820 377.50 816Q398 812 407.50 805.50Q417 799 457.50 761.50Q498 724 527 697Q554 666 554 629Q554 566 505.50 493.50Q457 421 356 331Q394 296 453 236.50Q512 177 529 159.50Q546 142 556 138.50Q566 135 572 132Q578 129 583 126.50Q588 124 590 119Q598 102 554 35.50Q510-31 480-31Q462-31 451-22.50Q440-14 429 4Q424 16 421.50 22.50Q419 29 414 33L203 230L203 45Q203 34 208.50 21.50Q214 9 219-1Q224-16 212-29Q200-42 181-42M203 427Q246 443 316 529Q386 615 386 658Q386 669 380 675Q375 678 369 678Q345 678 295.50 647Q246 616 203 580L203 427Z"  horiz-adv-x="594" vert-adv-y="1000"  />

      
      <glyph glyph-name="uni53" unicode="&#x53;" d="M300-36Q279-36 243-26Q207-16 193.50-13.50Q180-11 156-6Q133 1 113 19Q93 37 66 105Q39 173 33.50 181Q28 189 19 203Q16 218 24.50 232.50Q33 247 43 250Q53 253 67 253Q103 253 152.50 244.50Q202 236 210 228Q221 171 228.50 134Q236 97 252 90Q274 81 290.50 113Q307 145 307 191Q307 229 294 260.50Q281 292 206.50 332Q132 372 79.50 434Q27 496 27 587Q27 661 78 738Q129 815 186 828Q200 831 239 817.50Q278 804 316.50 788.50Q355 773 384 762Q414 749 431 727.50Q448 706 454 674.50Q460 643 460 602Q460 585 459 557Q458 529 458 520Q459 514 464 499.50Q469 485 469 475Q469 456 459.50 442Q450 428 432 426Q411 423 355 441Q299 459 289.50 472Q280 485 280 503Q280 511 283.50 566Q287 621 287 646Q287 667 285 678Q283 689 277 689Q246 689 225.50 647Q205 605 205 549Q205 508 218 473.50Q231 439 274.50 410.50Q318 382 376.50 344.50Q435 307 460 264.50Q485 222 485 136Q485 62 436 13Q387-36 300-36Z"  horiz-adv-x="510" vert-adv-y="1000"  />

      
      <glyph glyph-name="uni54" unicode="&#x54;" d="M351-33Q350-34 341-34Q309-34 246-20Q183-6 174 5.50Q165 17 165 29Q165 45 170.50 55Q176 65 180.50 75Q185 85 185 95L185 590L114 572Q107 571 96 563.50Q85 556 78 558Q56 564 14.50 617.50Q-27 671-20 690Q-15 704-3.50 712Q8 720 20 723.50Q32 727 42 727Q59 725 68 725Q75 725 78 726L426 815Q451 825 463 829.50Q475 834 484 832Q500 830 507.50 826.50Q515 823 522 811Q529 799 538 761.50Q547 724 547 697Q547 677 542 666.50Q537 656 531.50 653.50Q526 651 506 651Q498 651 484 657.50Q470 664 461 662L358 634L358 108Q358 89 361.50 76Q365 63 369 53Q373 43 373 33Q373 14 367.50-6.50Q362-27 351-33Z"  horiz-adv-x="552" vert-adv-y="1000"  />

      
      <glyph glyph-name="uni55" unicode="&#x55;" d="M376-39Q375-40 371-40Q345-40 309.50-27.50Q274-15 239-3Q193 9 165.50 17.50Q138 26 108 58.50Q78 91 55 234.50Q32 378 32 551Q32 676 41 743Q50 810 75 819Q92 825 155.50 804.50Q219 784 226 776Q233 768 233 757Q233 749 230 740Q227 731 222.50 722Q218 713 215.50 703.50Q213 694 214 687Q212 680 211 651Q210 622 210 579Q210 402 226 240Q242 78 276 78Q328 78 351 233Q374 388 374 567Q374 679 367 709Q369 725 361.50 745Q354 765 354 766Q352 779 357 793.50Q362 808 371.50 814Q381 820 393 820Q424 820 477.50 805Q531 790 538 782Q545 774 545 764Q545 758 543.50 751Q542 744 541.50 740Q541 736 541 711Q541 680 541 643Q541 606 542 563Q542 412 531 281Q520 150 483.50 55.50Q447-39 376-39Z"  horiz-adv-x="570" vert-adv-y="1000"  />

      
      <glyph glyph-name="uni56" unicode="&#x56;" d="M378-47Q349-52 261.50-23.50Q174 5 164.50 20Q155 35 154 53Q153 71 134.50 128Q116 185 82.50 293Q49 401 31.50 502.50Q14 604 14 725Q10 746 7 767Q10 785 16 795.50Q22 806 36 810Q49 814 122 791Q195 768 204 750Q207 741 207 733Q207 727 205.50 719Q204 711 203.50 706.50Q203 702 197 690Q191 678 192 671Q198 624 210 543.50Q222 463 239 374.50Q256 286 270 258Q285 342 307 419Q329 496 353 579Q377 662 384.50 704.50Q392 747 394 764.50Q396 782 403.50 798Q411 814 432 820Q448 825 509.50 802Q571 779 587 751Q553 664 512 510.50Q471 357 440.50 221.50Q410 86 410 69Q409 65 409 57Q409 49 410.50 36.50Q412 24 412 23Q412-2 404-22.50Q396-43 378-47Z"  horiz-adv-x="590" vert-adv-y="1000"  />

      
      <glyph glyph-name="uni57" unicode="&#x57;" d="M302-38Q294-40 286-40Q241-40 178.50-18Q116 4 108 24.50Q100 45 100 51Q101 61 101 70L99 94Q53 260 38 394.50Q23 529 23 726Q23 732 19 747Q15 762 15 770Q15 777 19 790Q23 803 32 815.50Q41 828 54 828Q80 828 137 797.50Q194 767 196.50 756Q199 745 199 736Q199 728 197.50 714.50Q196 701 195 692L195 619Q195 554 199.50 493Q204 432 220 329L360 768Q363 781 364.50 789Q366 797 375 808Q384 819 402 822Q413 824 482.50 790.50Q552 757 552 744Q552 737 549 656Q546 575 546 563Q546 496 549.50 443.50Q553 391 563 330Q591 472 628 600Q665 728 684 774Q689 796 703 808.50Q717 821 737 818Q770 814 817 792.50Q864 771 873 743Q820 646 777 489Q734 332 709.50 193Q685 54 685 28Q683 20 686 7.50Q689-5 688-11Q685-30 679-44.50Q673-59 661-61Q644-64 559-26.50Q474 11 470 22.50Q466 34 465.50 44Q465 54 465 61L465 92Q447 146 430.50 225Q414 304 408 360Q381 288 354 217Q329 139 329 61Q328 54 328 50Q328 43 329 36Q330 29 331 22Q331 15 328 0Q325-15 318.50-25Q312-35 302-38Z"  horiz-adv-x="859" vert-adv-y="1000"  />

      
      <glyph glyph-name="uni58" unicode="&#x58;" d="M150-42Q125-47 64-20Q3 7-7 23.50Q-17 40-17 48Q-17 59-10.50 68.50Q-4 78 11 93.50Q26 109 42 126L215 419L60 678Q55 686 38 699Q21 712 21 721Q21 737 73 780.50Q125 824 150 828Q175 832 181.50 822.50Q188 813 192.50 799.50Q197 786 199 782L312 582L444 774Q449 791 455 808Q463 818 476 822.50Q489 827 506 827Q524 827 581.50 797Q639 767 642 750Q645 734 639 724Q633 714 613 688Q591 671 569 654L408 420L570 138Q574 130 588 121Q602 112 609.50 96.50Q617 81 617 67Q617 57 608 44.50Q599 32 551-0.50Q503-33 487-35Q478-36 460.50-28Q443-20 439.50-10.50Q436-1 433.50 22Q431 45 423 58L312 246L198 51Q193 42 192 26Q191 10 184.50-5Q178-20 171.50-29.50Q165-39 150-42Z"  horiz-adv-x="636" vert-adv-y="1000"  />

      
      <glyph glyph-name="uni59" unicode="&#x59;" d="M318-39Q305-41 249-24.50Q193-8 166.50 10.50Q140 29 140 54Q140 67 145.50 78Q151 89 164 125.50Q177 162 206 241Q150 357 119 423Q88 489 58.50 559.50Q29 630 19.50 663Q10 696 0.50 705.50Q-9 715-9 723Q-9 735 3 747Q21 761 40.50 776Q60 791 93 809.50Q126 828 141 828Q159 828 171.50 811.50Q184 795 186 780Q186 765 187 749Q188 733 192 719Q207 642 227.50 585.50Q248 529 288 450Q308 500 332.50 558.50Q357 617 378.50 660.50Q400 704 437 760Q440 767 443.50 782Q447 797 457.50 809Q468 821 496 821Q502 820 505 820Q530 817 580 784.50Q630 752 630 737Q631 730 631 727Q631 707 625 692Q619 677 608.50 672.50Q598 668 590 664Q551 604 495.50 484.50Q440 365 392 242.50Q344 120 344 99Q344 89 348 68Q352 47 352 35Q349 8 340-14.50Q331-37 318-39Z"  horiz-adv-x="638" vert-adv-y="1000"  />

      
      <glyph glyph-name="uni5a" unicode="&#x5a;" d="M92-51Q73-42 35.50 13.50Q-2 69-2 103Q-2 111-0.50 116.50Q1 122 21 137Q41 152 47 158L389 642L226 612Q212 608 192.50 599Q173 590 166 590Q148 590 107 648Q66 706 66 731Q66 747 87 758.50Q108 770 123 770Q142 769 162 768L492 816Q513 822 534 828Q547 828 560 828Q572 826 581.50 816.50Q591 807 612.50 754Q634 701 634 676Q634 664 627.50 657Q621 650 583 626L258 156L450 186Q452 187 461.50 194Q471 201 480.50 203.50Q490 206 494 206Q505 206 525.50 191Q546 176 564.50 132.50Q583 89 583 57Q583 51 580.50 40Q578 29 554.50 16Q531 3 515 3Q495 3 456 13L175-24Q166-25 133-40Q100-55 92-51Z"  horiz-adv-x="642" vert-adv-y="1000"  />

      
      <glyph glyph-name="uni61" unicode="&#x61;" d="M171-36Q146-36 131-23.50Q116-11 87.50 20.50Q59 52 33 82Q12 110 12 135Q12 139 19.50 175.50Q27 212 75 264.50Q123 317 185.50 356.50Q248 396 336 439Q336 470 320 480Q309 486 250 458Q191 430 166 409Q158 406 151 397.50Q144 389 134 383Q124 377 109 381Q98 384 62 417Q26 450 23 461Q20 470 23.50 482.50Q27 495 35.50 500Q44 505 60 509.50Q76 514 80 515Q132 548 188 571.50Q244 595 286 595Q313 595 341.50 568.50Q370 542 389 524Q426 497 451.50 475.50Q477 454 477 428L477 50Q480 42 483 33.50Q486 25 486 15Q486 2 475-9Q464-20 449-18Q398-11 358 2Q318 15 311 30Q308 37 311 44Q314 51 317 58Q320 65 322 75.50Q324 86 324 103Q283 37 249.50 0.50Q216-36 171-36M134 75Q180 116 226 157Q304 252 326 307Q277 288 242 249Q216 217 190 186Q166 162 146 122.50Q126 83 134 75Z"  horiz-adv-x="510" vert-adv-y="1000"  />

      
      <glyph glyph-name="uni62" unicode="&#x62;" d="M170-47Q145-50 86-32.50Q27-15 18 1Q14 7 16.50 14.50Q19 22 25 32.50Q31 43 31.50 57.50Q32 72 32 78L32 750Q32 755 22.50 768.50Q13 782 15 792Q19 815 33 819.50Q47 824 56 824Q90 824 143 805Q196 786 205 766Q208 759 206 753Q204 747 199.50 736.50Q195 726 191 714.50Q187 703 186 696L186 532Q219 565 252.50 586Q286 607 311 607Q348 607 389.50 575Q431 543 453.50 497Q476 451 476 379Q476 284 440 179.50Q404 75 357 16Q353-2 350-10Q347-18 338.50-25Q330-32 319-34Q308-36 292-36Q259-36 229.50-13.50Q200 9 189 18Q190 9 194.50-3.50Q199-16 196-23Q187-47 170-47M189 84Q198 74 202 70.50Q206 67 213 66Q246 59 292.50 210Q339 361 339 458Q339 478 336 492Q298 477 250 431.50Q202 386 189 354L189 84Z"  horiz-adv-x="498" vert-adv-y="1000"  />

      
      <glyph glyph-name="uni63" unicode="&#x63;" d="M248-20Q238-22 220-22Q185-22 155.50-9Q126 4 87 30.50Q48 57 30 117Q12 177 12 257Q12 388 52.50 495.50Q93 603 156 603Q207 603 277 575Q347 547 366 521Q385 495 389.50 476.50Q394 458 394 432Q394 418 392.50 401Q391 384 390 364Q390 357 391 345Q392 333 392 328Q392 321 381.50 314.50Q371 308 361 308Q326 308 288 320.50Q250 333 241 360Q237 370 248.50 385Q260 400 259 409Q262 415 262 445Q262 472 257 489Q252 506 240 506Q208 506 187 412Q166 318 166 216Q166 163 173.50 127Q181 91 195 87Q218 82 252 133Q286 184 288 196.50Q290 209 290.50 220.50Q291 232 298 246Q305 260 329 260Q348 258 392.50 237Q437 216 439.50 205Q442 194 442 187Q442 172 435 164L409 137Q383 84 355.50 38.50Q328-7 248-20Z"  horiz-adv-x="450" vert-adv-y="1000"  />

      
      <glyph glyph-name="uni64" unicode="&#x64;" d="M314-23Q313-21 313-15.50Q313-10 313-7Q313 11 314.50 28.50Q316 46 321 83Q283 21 260.50-10.50Q238-42 218-38Q115-17 68 49Q21 115 21 208Q21 322 83 438Q145 554 187.50 574Q230 594 237 594Q254 594 273 579Q292 564 324 532L324 696Q323 704 321 710.50Q319 717 312.50 732Q306 747 304 752.50Q302 758 305 766Q314 785 368 804.50Q422 824 455 824Q463 824 477 819.50Q491 815 495 792Q497 781 487.50 767.50Q478 754 478 750L478 78Q478 64 478.50 53.50Q479 43 484.50 33Q490 23 493 15.50Q496 8 492 1Q483-14 423-31.50Q363-49 340-47Q323-47 314-23M321 484Q265 459 219.50 375Q174 291 174 217Q174 178 190 152.50Q206 127 240 123Q257 121 274 197.50Q291 274 302.50 355Q314 436 321 484Z"  horiz-adv-x="528" vert-adv-y="1000"  />

      
      <glyph glyph-name="uni65" unicode="&#x65;" d="M288-29Q282-32 270-32Q229-32 165-8Q101 16 80 45Q51 82 36.50 136.50Q22 191 22 255Q22 382 75 482Q128 582 213 582Q245 582 293.50 563.50Q342 545 363.50 523Q385 501 394.50 453.50Q404 406 404 361Q404 330 398.50 305Q393 280 382 267Q319 247 269 238.50Q219 230 172 230Q172 180 185 126Q198 72 213 72Q232 72 259 103.50Q286 135 292 154Q294 173 297.50 193Q301 213 311 216Q326 218 373.50 199.50Q421 181 429 168Q438 153 388 76Q338-1 288-29M168 313Q191 313 207.50 317.50Q224 322 235.50 331Q247 340 251.50 371Q256 402 256 434Q256 472 251 474Q233 476 203 420.50Q173 365 168 313Z"  horiz-adv-x="444" vert-adv-y="1000"  />

      
      <glyph glyph-name="uni66" unicode="&#x66;" d="M364 483Q364 463 350 448Q336 433 321 438Q313 441 301 442Q289 443 273 443L258 443L258 48Q258 39 266 26.50Q274 14 273 6Q270-10 259-20Q248-30 231-30Q208-30 150.50-10.50Q93 9 89 26Q87 34 91 41.50Q95 49 100 61Q105 73 105 90L105 444L71 444Q54 444 28.50 472.50Q3 501-3 522Q-8 538 4 554Q16 570 33 570L105 570Q105 680 126 748.50Q147 817 246 817Q263 817 284.50 815Q306 813 339.50 785.50Q373 758 375 744Q377 729 366.50 710.50Q356 692 343 692Q336 692 323.50 702.50Q311 713 303 714Q276 719 266.50 693.50Q257 668 257 625Q257 610 257 596.50Q257 583 258 570L290 570Q301 570 332.50 534.50Q364 499 364 483Z"  horiz-adv-x="358" vert-adv-y="1000"  />

      
      <glyph glyph-name="uni67" unicode="&#x67;" d="M211-24Q193-24 166-16.50Q139-9 104 20.50Q69 50 42 121Q15 192 15 271Q15 382 62.50 473Q110 564 154 577Q198 590 201 590Q218 590 236 576Q254 562 271 548Q276 564 282.50 581Q289 598 304 600Q326 603 378.50 587Q431 571 439 558Q447 545 447 533Q447 526 445 521.50Q443 517 435 502Q427 487 427 480L427 42Q427-39 399-92.50Q371-146 309-170Q247-194 200-194Q167-194 137.50-183Q108-172 90-155.50Q72-139 61-128.50Q50-118 39.50-103Q29-88 16.50-77Q4-66 4-54Q4-44 11-39.50Q18-35 27.50-32Q37-29 47-29Q72-29 100-37.50Q128-46 142-60Q164-89 178.50-106.50Q193-124 215-124Q256-128 265-83.50Q274-39 274 36Q256 13 238-10Q224-24 211-24M196 78Q230 131 245 172.50Q260 214 265.50 258.50Q271 303 273.50 340Q276 377 276 391Q276 430 270.50 452.50Q265 475 250 480Q230 488 199.50 408.50Q169 329 169 265Q169 203 173.50 163Q178 123 196 78Z"  horiz-adv-x="456" vert-adv-y="1000"  />

      
      <glyph glyph-name="uni68" unicode="&#x68;" d="M165-26Q162-27 152-27Q122-27 72.50-15.50Q23-4 17 4.50Q11 13 11 23Q11 29 13.50 36.50Q16 44 24.50 51.50Q33 59 33 66L33 773Q33 781 25.50 794.50Q18 808 20 816Q25 836 51 843Q69 847 129.50 832Q190 817 194 806Q198 795 198 787Q198 781 196 775.50Q194 770 192 763.50Q190 757 188 739.50Q186 722 186 712L186 525Q220 568 244.50 582Q269 596 294 596Q330 596 382.50 573Q435 550 450 516.50Q465 483 468.50 362Q472 241 472 145L472 57Q480 38 480 29Q480 21 478 8Q476-5 472.50-11Q469-17 459-21.50Q449-26 432-26Q396-26 350-15.50Q304-5 297 3Q290 11 290 19Q290 24 292.50 31.50Q295 39 299 48Q307 58 313 66.50Q319 75 319 90Q319 103 319 137.50Q319 172 319 215L319 260L319 300Q319 393 317.50 439Q316 485 313 487Q298 492 242 411.50Q186 331 186 281L186 59Q198 47 198 30Q198 22 194.50 3.50Q191-15 165-26Z"  horiz-adv-x="499" vert-adv-y="1000"  />

      
      <glyph glyph-name="uni69" unicode="&#x69;" d="M185-33Q182-34 171-34Q135-34 80-18Q25-2 15 16Q11 22 13.50 28Q16 34 22 44Q28 54 30.50 71Q33 88 33 102L33 522Q31 528 26 538Q21 548 21 556Q21 567 28.50 575Q36 583 43 584.50Q50 586 59 586Q91 586 143 567.50Q195 549 202.50 539Q210 529 210 522Q210 508 202 501.50Q194 495 190 483Q186 471 186 462L186 60Q186 52 198 36.50Q210 21 210 15Q210-4 205-16Q200-28 185-33M186 597Q173 592 138.50 606.50Q104 621 84 625Q64 629 45 635.50Q26 642 21.50 650.50Q17 659 17 667Q17 681 22 701.50Q27 722 35 736Q43 750 49.50 756.50Q56 763 66 765Q90 769 147 748Q204 727 209.50 713.50Q215 700 215 694Q215 687 210 679Q205 671 205 668Q209 660 209 649Q209 642 206 623.50Q203 605 186 597Z"  horiz-adv-x="237" vert-adv-y="1000"  />

      
      <glyph glyph-name="uni6a" unicode="&#x6a;" d="M-20-178Q-44-171-90.50-138.50Q-137-106-145-83Q-148-73-143-64.50Q-138-56-130.50-51.50Q-123-47-113-47Q-90-47-60.50-52.50Q-31-58-13-67Q1-87 14-98.50Q27-110 49-110Q59-110 61-67.50Q63-25 63 3Q63 11 63 13L63 14L63 522Q61 528 56 538Q51 548 51 556Q51 567 58.50 575Q66 583 73 584.50Q80 586 89 586Q121 586 173 567.50Q225 549 232.50 539Q240 529 240 522Q240 508 232 501.50Q224 495 220 483Q216 471 216 462L216-28Q216-34 216-42Q216-50 217-61Q217-102 206.50-135.50Q196-169 165-189Q148-198 115-198Q81-198 40.50-191Q0-184-20-178M216 597Q203 592 168.50 606.50Q134 621 114 625Q94 629 75 635.50Q56 642 51.50 650.50Q47 659 47 667Q47 681 52 701.50Q57 722 65 736Q73 750 79.50 756.50Q86 763 96 765Q120 769 177 748Q234 727 239.50 713.50Q245 700 245 694Q245 687 240 679Q235 671 235 668Q239 660 239 649Q239 642 236 623.50Q233 605 216 597Z"  horiz-adv-x="255" vert-adv-y="1000"  />

      
      <glyph glyph-name="uni6b" unicode="&#x6b;" d="M179-28Q169-33 150-33Q112-33 73-18Q34-3 34 20L34 762Q34 778 44 797.50Q54 817 67 821Q83 827 138 808Q193 789 197.50 777.50Q202 766 202 761Q202 755 194 742Q186 729 186 718L186 371L334 574Q347 593 367 593Q388 593 423.50 567.50Q459 542 459 514Q459 503 399 417.50Q339 332 325 310L455 131Q459 125 481 112Q503 99 503 91Q505 73 465 22Q425-29 403-26Q373-22 313 66Q253 154 221 207L187 172L187 54Q187 50 190 37Q193 24 193 17Q195 2 192-10Q189-22 179-28Z"  horiz-adv-x="492" vert-adv-y="1000"  />

      
      <glyph glyph-name="uni6c" unicode="&#x6c;" d="M47-8Q37 0 31 7.50Q25 15 25 28Q25 32 29 37Q33 42 33 54L33 759Q33 763 29.50 770.50Q26 778 26 784Q26 797 37.50 805Q49 813 57.50 815Q66 817 80 817Q113 817 150.50 810Q188 803 199 792Q210 781 210 771Q210 763 205 750.50Q200 738 198 730.50Q196 723 192 706.50Q188 690 188 675L188 61Q188 50 194 40Q200 30 200 24Q200-4 194.50-23.50Q189-43 176-46Q160-49 108.50-33Q57-17 47-8Z"  horiz-adv-x="228" vert-adv-y="1000"  />

      
      <glyph glyph-name="uni6d" unicode="&#x6d;" d="M483 13Q480-5 475.50-10.50Q471-16 460-21Q449-26 432-26Q396-26 350-15.50Q304-5 297 2.50Q290 10 290 17Q290 22 293.50 30Q297 38 301 46Q309 56 314 65Q319 74 319 90Q319 103 319 137.50Q319 172 319 215L319 260L319 300Q319 393 317.50 439Q316 485 313 487Q299 492 242.50 394.50Q186 297 186 246L186 59Q198 47 198 30Q198 22 194.50 3.50Q191-15 176.50-21Q162-27 152-27Q122-27 72.50-15.50Q23-4 17 4.50Q11 13 11 23Q11 29 13.50 36.50Q16 44 24.50 51.50Q33 59 33 66L33 531Q33 539 25.50 552.50Q18 566 20 574Q25 594 51 601Q69 605 129.50 590Q190 575 194 564Q198 553 198 545Q198 539 196 533.50Q194 528 192 521.50Q190 515 188 497.50Q186 480 186 470L186 460Q201 509 231 552.50Q261 596 294 596Q326 596 379 571.50Q432 547 441.50 533.50Q451 520 455.50 497Q460 474 464 458Q480 490 509.50 543Q539 596 576 596Q612 596 664.50 573Q717 550 732 516.50Q747 483 750.50 362Q754 241 754 145L754 57Q762 38 762 29Q762 21 760 8Q758-5 754.50-11Q751-17 741-21.50Q731-26 714-26Q678-26 632-15.50Q586-5 579 3Q572 11 572 19Q572 24 574.50 31.50Q577 39 581 48Q589 58 595 66.50Q601 75 601 90Q601 103 601 137.50Q601 172 601 215L601 260L601 300Q601 393 599.50 439Q598 485 595 487Q579 492 527.50 404Q476 316 476 248L476 52Q479 42 481 32.50Q483 23 483 13Z"  horiz-adv-x="792" vert-adv-y="1000"  />

      
      <glyph glyph-name="uni6e" unicode="&#x6e;" d="M165-26Q162-27 152-27Q122-27 72.50-15.50Q23-4 17 4.50Q11 13 11 23Q11 29 13.50 36.50Q16 44 24.50 51.50Q33 59 33 66L33 531Q33 539 25.50 552.50Q18 566 20 574Q25 594 51 601Q69 605 129.50 590Q190 575 194 564Q198 553 198 545Q198 539 196 533.50Q194 528 192 521.50Q190 515 188 497.50Q186 480 186 470L186 460Q201 509 231 552.50Q261 596 294 596Q330 596 382.50 573Q435 550 450 516.50Q465 483 468.50 362Q472 241 472 145L472 57Q480 38 480 29Q480 21 478 8Q476-5 472.50-11Q469-17 459-21.50Q449-26 432-26Q396-26 350-15.50Q304-5 297 3Q290 11 290 19Q290 24 292.50 31.50Q295 39 299 48Q307 58 313 66.50Q319 75 319 90Q319 103 319 137.50Q319 172 319 215L319 260L319 300Q319 393 317.50 439Q316 485 313 487Q299 492 242.50 394.50Q186 297 186 246L186 59Q198 47 198 30Q198 22 194.50 3.50Q191-15 165-26Z"  horiz-adv-x="499" vert-adv-y="1000"  />

      
      <glyph glyph-name="uni6f" unicode="&#x6f;" d="M293-40Q275-38 244.50-31Q214-24 200.50-22Q187-20 172.50-17Q158-14 118-2.50Q78 9 45.50 87Q13 165 13 269Q13 372 46.50 459.50Q80 547 118 568.50Q156 590 177 590Q193 590 215 585.50Q237 581 255 577Q295 574 319 572.50Q343 571 376 555.50Q409 540 437.50 464Q466 388 466 290Q466 161 421.50 60Q377-41 305-41Q297-41 293-40M230 61Q262 54 286.50 131Q311 208 311 301Q311 365 296 413Q281 461 250 474Q222 487 195.50 418.50Q169 350 169 285Q169 213 187 140Q205 67 230 61Z"  horiz-adv-x="480" vert-adv-y="1000"  />

      
      <glyph glyph-name="uni70" unicode="&#x70;" d="M202 585Q203 583 203 578.50Q203 574 203 569Q203 551 199.50 519Q196 487 195 479Q233 546 255 580Q277 614 298 610Q401 589 448 522Q495 455 495 360Q495 243 433.50 125.50Q372 8 329-12Q286-32 279-32Q262-32 243-17Q224-2 192 30L192-64Q193-72 195-78.50Q197-85 203.50-100Q210-115 212-120.50Q214-126 211-134Q202-153 148-172.50Q94-192 61-192Q53-192 39-187.50Q25-183 21-160Q19-149 28.50-135.50Q38-122 38-118L38 484Q38 497 37.50 508Q37 519 31.50 529Q26 539 23 546.50Q20 554 24 561Q33 576 93 593.50Q153 611 176 609Q193 609 202 585M195 78Q251 103 296.50 187Q342 271 342 345Q342 384 326 409.50Q310 435 276 439Q244 443 219.50 351.50Q195 260 195 78Z"  horiz-adv-x="510" vert-adv-y="1000"  />

      
      <glyph glyph-name="uni71" unicode="&#x71;" d="M318 599Q343 602 402 584.50Q461 567 470 551Q474 545 471.50 537.50Q469 530 463.50 520Q458 510 457 498Q456 486 456 484L456 474L456-126Q456-131 465.50-144.50Q475-158 473-168Q469-191 455-195.50Q441-200 432-200Q398-200 345-181Q292-162 283-142Q280-135 282-129Q284-123 288.50-112.50Q293-102 296.50-93.50Q300-85 302-72L302 20Q268-14 233.50-34.50Q199-55 167-55Q137-55 97-23Q57 9 34.50 55Q12 101 12 173Q12 268 48 372.50Q84 477 131 536Q135 554 138 562Q141 570 149.50 577Q158 584 169 586Q180 588 196 588Q229 588 255 568Q281 548 299 534Q298 543 293.50 555.50Q289 568 292 575Q301 599 318 599M299 468Q291 476 286.50 480.50Q282 485 275 486Q242 493 195.50 342Q149 191 149 94Q149 74 152 60Q190 75 238 120.50Q286 166 299 198L299 468Z"  horiz-adv-x="498" vert-adv-y="1000"  />

      
      <glyph glyph-name="uni72" unicode="&#x72;" d="M189-24Q181-27 176-28Q171-29 158-29Q116-29 71-11.50Q26 6 18 31Q15 39 17 47.50Q19 56 23.50 65Q28 74 30.50 81.50Q33 89 33 102L33 498Q27 525 21 552Q21 586 41.50 592Q62 598 79 598Q115 598 152.50 587Q190 576 195.50 566Q201 556 201 549Q201 537 195 530Q189 523 188 514.50Q187 506 186 504L186 456Q217 513 240 554.50Q263 596 279 599Q301 603 346 573Q391 543 396 523Q400 507 386.50 499Q373 491 362 484Q358 479 292.50 379Q227 279 191 225Q191 171 191 118.50Q191 66 193 60Q193 55 199 43Q205 31 205 23Q205 0 201-10Q197-20 189-24Z"  horiz-adv-x="390" vert-adv-y="1000"  />

      
      <glyph glyph-name="uni73" unicode="&#x73;" d="M240-31Q223-31 205-26Q187-21 169-16.50Q151-12 133-9Q116-4 98 12.50Q80 29 60.50 60.50Q41 92 31.50 107.50Q22 123 16.50 129.50Q11 136 10 141Q8 153 13.50 163Q19 173 27 176Q35 179 47 179Q80 179 124 173Q168 167 173 161Q181 114 186.50 86Q192 58 204 58Q215 58 221 75.50Q227 93 227 120Q227 154 217 181.50Q207 209 148 236.50Q89 264 55.50 303Q22 342 22 429Q22 486 51.50 536.50Q81 587 123 597Q137 600 174 591.50Q211 583 229 576Q247 569 285 556Q323 543 336.50 526.50Q350 510 355 483.50Q360 457 360 422Q360 411 359.50 400.50Q359 390 359 380Q363 362 367 345Q367 313 339 308Q324 306 282 319.50Q240 333 232 344Q224 355 224 379Q224 394 224 410Q224 426 225 443Q225 471 223 487.50Q221 504 215 504Q199 504 183.50 459Q168 414 168 367Q168 342 172.50 327Q177 312 217 288.50Q257 265 325 225Q379 181 379 92Q379 37 342.50 3Q306-31 240-31Z"  horiz-adv-x="398" vert-adv-y="1000"  />

      
      <glyph glyph-name="uni74" unicode="&#x74;" d="M364 483Q364 463 350 448Q336 433 321 438Q313 441 301 442Q289 443 273 443L258 443L258 48Q258 39 266 26.50Q274 14 273 6Q270-10 259-20Q248-30 231-30Q208-30 150.50-10.50Q93 9 89 26Q87 34 91 41.50Q95 49 100 61Q105 73 105 90L105 444L71 444Q54 444 28.50 472.50Q3 501-3 522Q-8 538 4 554Q16 570 33 570L105 570L105 660Q102 664 98.50 671Q95 678 92.50 684Q90 690 90 699Q90 724 102 727.50Q114 731 133 731Q171 731 219.50 720Q268 709 279 699.50Q290 690 290 680Q290 660 279.50 652.50Q269 645 265 643Q261 638 258 624L258 570L290 570Q301 570 332.50 534.50Q364 499 364 483Z"  horiz-adv-x="358" vert-adv-y="1000"  />

      
      <glyph glyph-name="uni75" unicode="&#x75;" d="M331 594Q334 595 344 595Q374 595 423.50 583.50Q473 572 479 564Q485 556 485 545Q485 535 482.50 529.50Q480 524 471.50 516.50Q463 509 463 502L463 37Q463 29 470.50 15.50Q478 2 476-6Q471-26 445-33Q427-37 366.50-22Q306-7 302 4Q298 15 298 23Q298 29 300 34.50Q302 40 304 46.50Q306 53 308 70.50Q310 88 310 98L310 108Q295 59 265 15.50Q235-28 202-28Q166-28 113.50-5Q61 18 48.50 47Q36 76 30 189Q24 302 24 423L24 511Q16 530 16 539Q16 547 18 560Q20 573 23.50 579Q27 585 37 589.50Q47 594 64 594Q100 594 146 583.50Q192 573 199 565Q206 557 206 549Q206 544 203.50 536.50Q201 529 197 520Q189 510 183 501.50Q177 493 177 478Q177 465 177 430.50Q177 396 177 353Q177 264 177.50 173.50Q178 83 183 81Q197 76 253.50 173.50Q310 271 310 322L310 509Q298 521 298 538Q298 546 301.50 564.50Q305 583 331 594Z"  horiz-adv-x="499" vert-adv-y="1000"  />

      
      <glyph glyph-name="uni76" unicode="&#x76;" d="M324-48Q300-52 215.50-29.50Q131-7 120 9Q116 17 115 31.50Q114 46 100.50 88.50Q87 131 61.50 213.50Q36 296 23 371.50Q10 447 10 540Q7 556 5 572Q7 584 11.50 592.50Q16 601 26 605Q41 610 106.50 591Q172 572 176 563Q180 554 180 549Q180 544 179 539Q178 534 175 525Q172 516 168 502Q181 411 197 315.50Q213 220 227 193Q240 266 265.50 362Q291 458 304.50 507.50Q318 557 320 571.50Q322 586 326.50 597Q331 608 348 614Q361 617 414.50 595Q468 573 481 551Q456 488 422.50 362Q389 236 368.50 145.50Q348 55 348 39Q347 34 348 24.50Q349 15 349 5Q351-12 344.50-28.50Q338-45 324-48Z"  horiz-adv-x="498" vert-adv-y="1000"  />

      
      <glyph glyph-name="uni77" unicode="&#x77;" d="M249-35Q246-36 236-36Q201-36 152.50-20.50Q104-5 98 9Q92 23 92 29Q93 37 93 44L91 62Q69 172 48 284.50Q27 397 21 458.50Q15 520 12.50 531Q10 542 10 547Q10 552 13 562.50Q16 573 22.50 582Q29 591 39 591Q59 591 112 569.50Q165 548 167 539.50Q169 531 169 523Q167 505 166 492Q175 396 181 337.50Q187 279 197 220L266 549Q267 554 268.50 562Q270 570 276.50 578.50Q283 587 297 590Q311 592 360.50 565.50Q410 539 410 531Q410 506 422.50 416.50Q435 327 454 220Q480 349 502 440.50Q524 532 533 554Q536 570 546.50 579.50Q557 589 573 587Q598 584 640.50 563.50Q683 543 690 521Q660 439 628 327Q596 215 575 125Q554 35 555 24Q554 18 555 9.50Q556 1 557-6Q557-19 551.50-30.50Q546-42 537-43Q521-45 448.50-27Q376-9 373 0Q370 9 369.50 13Q369 17 369 25L369 51Q358 85 344.50 168Q331 251 326 300Q319 265 294.50 166.50Q270 68 270 40Q270 21 270 3Q267-11 262-21.50Q257-32 249-35Z"  horiz-adv-x="696" vert-adv-y="1000"  />

      
      <glyph glyph-name="uni78" unicode="&#x78;" d="M140-36Q121-39 62.50-18Q4 3-3.50 14Q-11 25-11 33Q-11 42-6.50 48Q-2 54 10 66Q22 78 34 91L170 298L47 490Q43 496 30.50 505.50Q18 515 18 521Q18 533 69 566Q120 599 140 602Q149 604 156 602Q163 600 166.50 594.50Q170 589 173 579.50Q176 570 177 568L264 418L360 562Q364 574 369 587Q375 595 386.50 597.50Q398 600 405 601Q422 601 476.50 579Q531 557 534 544Q536 533 530.50 523Q525 513 512 497Q495 484 479 472L352 302L492 97Q498 86 507.50 80.50Q517 75 519.50 69Q522 63 525 56.50Q528 50 528 43Q528 36 521.50 27Q515 18 466.50-7Q418-32 405-34Q398-34 385-28Q372-22 369-14.50Q366-7 364 10Q362 27 357 37L264 178L176 34Q172 27 171 15Q170 3 166-7.50Q162-18 156.50-26Q151-34 140-36Z"  horiz-adv-x="546" vert-adv-y="1000"  />

      
      <glyph glyph-name="uni79" unicode="&#x79;" d="M270-198Q267-199 258-199Q230-199 191-185Q152-171 137.50-157Q123-143 123-124Q123-111 126-102Q129-93 139-80.50Q149-68 151-60L184 54L22 452Q19 459 8.50 468Q-2 477-6 485.50Q-10 494-13 512Q-15 523 40.50 554Q96 585 125 585Q133 585 140.50 580.50Q148 576 153.50 568Q159 560 161 548L173 505L261 262L355 512Q361 531 367 551Q375 572 386.50 576Q398 580 411 580Q445 580 484 564.50Q523 549 526.50 536.50Q530 524 530 520Q530 510 528.50 506Q527 502 521 492Q515 482 505.50 471Q496 460 493 452L294-122Q292-130 292-134Q292-145 292-157Q288-175 283.50-185.50Q279-196 270-198Z"  horiz-adv-x="534" vert-adv-y="1000"  />

      
      <glyph glyph-name="uni7a" unicode="&#x7a;" d="M85-46Q67-36 29 10Q-9 56-2 79Q0 84 14.50 95.50Q29 107 34 112L278 463L168 439Q165 438 147.50 430.50Q130 423 123 424Q110 424 82 470Q54 516 54 535Q54 547 68.50 555Q83 563 97 565L126 562L373 598Q378 599 388 603Q398 607 405 607L420 607Q432 607 440.50 598.50Q449 590 470.50 549Q492 508 492 490Q492 484 485.50 477.50Q479 471 454 457L210 115L342 127Q353 133 364 139Q374 141 377 141Q384 141 400 129Q416 117 430.50 79Q445 41 441 22Q438 8 420.50-1.50Q403-11 391-11Q383-11 369.50-8.50Q356-6 346-4L148-26Q136-27 113.50-38Q91-49 85-46Z"  horiz-adv-x="498" vert-adv-y="1000"  />

      
      <glyph glyph-name="uni7e" unicode="&#x7e;" d="M215 392Q204 392 181.50 378Q159 364 143 361Q137 358 131.50 355.50Q126 353 119 356Q104 365 91 380.50Q78 396 63.50 421Q49 446 53 459Q56 468 64.50 471.50Q73 475 107 478Q122 478 150.50 491.50Q179 505 192 505Q214 505 253.50 483Q293 461 309 461Q322 461 336 469.50Q350 478 362 488Q379 496 396 496Q403 496 409 494.50Q415 493 423.50 491Q432 489 450.50 449.50Q469 410 464 391Q460 378 430 378L416 378Q403 378 371 362Q339 346 321 346Q301 346 266 369Q231 392 215 392Z"  horiz-adv-x="510" vert-adv-y="1000"  />

      
      <glyph glyph-name="unic4" unicode="&#xc4;" d="M227 689Q216 685 174.50 704Q133 723 128 734Q124 741 138.50 776.50Q153 812 160 823.50Q167 835 180 835Q187 835 203 831Q219 827 231 825Q243 823 251.50 819Q260 815 262 804Q264 795 252 772Q240 749 240 735Q241 723 240 716Q238 702 236 697Q234 692 227 689M395 689Q384 685 342.50 704Q301 723 296 734Q292 741 306.50 776.50Q321 812 328 823.50Q335 835 348 835Q355 835 371 831Q387 827 399 825Q411 823 419.50 819Q428 815 430 804Q432 795 420 772Q408 749 408 735Q409 723 408 716Q406 702 404 697Q402 692 395 689M189 116Q180 92 171 66.50Q162 41 157 31Q153 16 151 7.50Q149-1 138-7Q125-14 73.50 8Q22 30 20 38Q17 50 39 106Q61 162 64 172Q55 182 50.50 191Q46 200 48 214Q50 221 65 230Q80 239 97 249L200 602Q203 614 203 623Q203 631 202 637.50Q201 644 200 651Q200 658 205 663Q210 668 225 668Q264 668 333 648.50Q402 629 416 614Q416 536 452.50 334.50Q489 133 533 46Q531 32 530 14Q529-4 525-8.50Q521-13 509-13Q482-13 442.50 0.50Q403 14 392.50 25.50Q382 37 372.50 89Q363 141 354 168Q325 164 265.50 145.50Q206 127 189 116M237 266Q257 274 281 279.50Q305 285 324 289Q315 333 306 378Q300 420 300 466Q283 424 261 355Q239 286 237 266Z"  horiz-adv-x="558" vert-adv-y="1000"  />

      
      <glyph glyph-name="unic5" unicode="&#xc5;" d="M189 116Q180 92 171 66.50Q162 41 157 31Q153 16 151 7.50Q149-1 138-7Q125-14 73.50 8Q22 30 20 38Q17 50 39 106Q61 162 64 172Q55 182 50.50 191Q46 200 48 214Q50 221 65 230Q80 239 97 249L200 602Q203 614 203 623Q203 631 202 637.50Q201 644 200 651Q200 658 205 663Q210 668 225 668Q264 668 333 648.50Q402 629 416 614Q416 536 452.50 334.50Q489 133 533 46Q531 32 530 14Q529-4 525-8.50Q521-13 509-13Q482-13 442.50 0.50Q403 14 392.50 25.50Q382 37 372.50 89Q363 141 354 168Q325 164 265.50 145.50Q206 127 189 116M237 266Q257 274 281 279.50Q305 285 324 289Q315 333 306 378Q300 420 300 466Q283 424 261 355Q239 286 237 266M222 835Q237 855 259 866Q281 877 305 877Q336 877 362.50 854Q389 831 389 792Q389 772 383.50 758.50Q378 745 357.50 716Q337 687 283 687Q252 687 226.50 709.50Q201 732 201 772Q201 806 222 835M277 804Q260 790 260 769Q260 758 268 750.50Q276 743 287 743Q293 743 300.50 746.50Q308 750 320.50 762Q333 774 333 791Q333 801 325 808.50Q317 816 306 816Q296 816 290 813Q284 810 277 804Z"  horiz-adv-x="558" vert-adv-y="1000"  />

      
      <glyph glyph-name="unic7" unicode="&#xc7;" d="M308-36Q305-35 268-81Q231-127 220.50-137.50Q210-148 203-160Q196-172 189-172Q161-172 128.50-155Q96-138 93-118Q92-110 100-103Q108-96 118-88Q131-73 178-32Q193-16 209 0Q110 41 61.50 149Q13 257 13 397Q13 563 78 691.50Q143 820 244 820Q283 820 358.50 778.50Q434 737 455 701Q476 665 483.50 608.50Q491 552 491 515Q491 483 481 450Q471 417 452 420Q416 426 358 444Q300 462 296.50 473.50Q293 485 293 487Q293 496 301.50 510Q310 524 310 531Q312 545 313.50 568Q315 591 315 607Q315 633 312.50 650.50Q310 668 303 680Q242 635 214 540Q186 445 186 334Q186 250 201 184Q216 118 237 104Q247 97 292 143Q337 189 351 219Q357 241 361 255Q365 269 376 273Q394 279 463 244.50Q532 210 532 194Q532 182 527 173Q522 164 513 156Q483 94 421 28Q359-38 319-38Q316-38 313-38Q309-36 308-36Z"  horiz-adv-x="546" vert-adv-y="1000"  />

      
      <glyph glyph-name="unic9" unicode="&#xc9;" d="M190-28Q107 6 80.50 18Q54 30 54 41L54 643Q54 648 72.50 658Q91 668 100 668Q110 668 139 656Q168 644 186 644Q206 644 244.50 665Q283 686 292 683Q312 677 349.50 641.50Q387 606 390 591Q392 583 376 565.50Q360 548 349 548Q339 550 330 552Q296 544 257 531Q218 518 190 491L190 360Q201 363 227.50 376Q254 389 262 390Q275 390 316.50 353.50Q358 317 358 303Q358 294 347 282Q336 270 329 268Q322 266 318.50 265.50Q315 265 314 265Q305 265 297 265Q283 263 248 245.50Q213 228 190 214L190 130Q214 145 254.50 164Q295 183 306 183Q318 183 362.50 148.50Q407 114 406 104Q403 90 391.50 74.50Q380 59 371 56Q369 56 361 60Q353 64 349 62Q319 52 279.50 33.50Q240 15 190-28M229 686Q219 682 203 687.50Q187 693 172 699Q156 702 141 706Q126 710 121 720Q118 725 141 757.50Q164 790 166.50 795Q169 800 177.50 824Q186 848 191.50 849Q197 850 205 850Q229 850 254.50 841Q280 832 287 816Q291 807 278.50 793Q266 779 267.50 775Q269 771 257.50 749Q246 727 245 720.50Q244 714 239.50 701.50Q235 689 229 686Z"  horiz-adv-x="426" vert-adv-y="1000"  />

      
      <glyph glyph-name="unid1" unicode="&#xd1;" d="M211 725Q200 725 177.50 711Q155 697 139 694Q133 691 127.50 688.50Q122 686 115 689Q100 698 87 713.50Q74 729 59.50 754Q45 779 49 792Q52 801 60.50 804.50Q69 808 103 811Q118 811 146.50 824.50Q175 838 188 838Q210 838 249.50 816Q289 794 305 794Q318 794 332 802.50Q346 811 358 821Q375 829 392 829Q399 829 405 827.50Q411 826 419.50 824Q428 822 446.50 782.50Q465 743 460 724Q456 711 426 711L412 711Q399 711 367 695Q335 679 317 679Q297 679 262 702Q227 725 211 725M178 2Q172-1 162-1Q132-1 84 15Q36 31 31 38Q26 45 26 56Q26 65 29.50 72Q33 79 36 85.50Q39 92 39 98L39 600Q37 614 36 629Q44 656 58.50 662Q73 668 85 668Q119 668 154.50 659.50Q190 651 208.50 631.50Q227 612 275.50 459.50Q324 307 335 283Q335 342 335 408Q335 474 336 548L336 586Q335 595 335 597Q335 602 331.50 618Q328 634 330 642Q334 653 353.50 659.50Q373 666 400 666Q418 666 450 656.50Q482 647 482 632Q482 623 477.50 611Q473 599 472 594L472 66Q472 56 474 47.50Q476 39 476.50 36Q477 33 477 24Q477 11 474.50 1.50Q472-8 467-12Q462-16 449-18Q436-20 423-20Q405-19 402-19Q374-16 337-4.50Q300 7 290 18Q280 29 280 40Q281 50 281 55Q281 58 265 101Q249 144 217 226Q185 308 175 324L175 87Q175 79 179.50 71Q184 63 188 56Q192 44 192 31Q192 18 188.50 12Q185 6 178 2Z"  horiz-adv-x="510" vert-adv-y="1000"  />

      
      <glyph glyph-name="unid6" unicode="&#xd6;" d="M215 671Q204 667 162.50 686Q121 705 116 716Q112 723 126.50 758.50Q141 794 148 805.50Q155 817 168 817Q175 817 191 813Q207 809 219 807Q231 805 239.50 801Q248 797 250 786Q252 777 240 754Q228 731 228 717Q229 705 228 698Q226 684 224 679Q222 674 215 671M383 671Q372 667 330.50 686Q289 705 284 716Q280 723 294.50 758.50Q309 794 316 805.50Q323 817 336 817Q343 817 359 813Q375 809 387 807Q399 805 407.50 801Q416 797 418 786Q420 777 408 754Q396 731 396 717Q397 705 396 698Q394 684 392 679Q390 674 383 671M316-27Q292-27 268-20.50Q244-14 225.50-9Q207-4 191 0.50Q175 5 132.50 23Q90 41 59.50 120.50Q29 200 29 301Q29 420 63.50 522Q98 624 124.50 635Q151 646 154.50 646Q158 646 159 646Q166 646 173 644Q180 642 190 640Q209 645 229 651Q249 657 265 657Q276 657 327 651Q378 645 430.50 541.50Q483 438 483 303Q483 173 437.50 73Q392-27 316-27M294 560Q276 564 259.50 515.50Q243 467 230 462Q223 459 214 464.50Q205 470 200 470Q187 442 180 395.50Q173 349 173 300Q173 211 192.50 145.50Q212 80 249 73Q293 65 317.50 155.50Q342 246 342 364Q342 443 329.50 498.50Q317 554 294 560Z"  horiz-adv-x="510" vert-adv-y="1000"  />

      
      <glyph glyph-name="unidc" unicode="&#xdc;" d="M191 674Q180 670 138.50 689Q97 708 92 719Q88 726 102.50 761.50Q117 797 124 808.50Q131 820 144 820Q151 820 167 816Q183 812 195 810Q207 808 215.50 804Q224 800 226 789Q228 780 216 757Q204 734 204 720Q205 708 204 701Q202 687 200 682Q198 677 191 674M359 674Q348 670 306.50 689Q265 708 260 719Q256 726 270.50 761.50Q285 797 292 808.50Q299 820 312 820Q319 820 335 816Q351 812 363 810Q375 808 383.50 804Q392 800 394 789Q396 780 384 757Q372 734 372 720Q373 708 372 701Q370 687 368 682Q366 677 359 674M312-30Q287-30 273.50-27Q260-24 188-1Q152 8 130 15Q108 22 84.50 48Q61 74 42 191Q23 308 23 443Q23 552 34 625Q34 649 57 657Q66 660 118 645.50Q170 631 177 622.50Q184 614 184 607Q184 602 181.50 594.50Q179 587 176 580Q173 573 170 565Q167 557 168 551Q164 533 164 462Q164 318 177 191Q190 64 217 64Q259 64 277.50 188.50Q296 313 296 458Q296 547 291 569Q292 584 288 594Q284 604 280 614Q278 626 281.50 637Q285 648 294 653Q303 658 313 658Q337 658 380 646Q423 634 428 627.50Q433 621 433 613Q431 599 431 594Q430 591 430 583Q430 575 430 569Q430 545 430 516Q430 487 431 454Q431 327 423.50 226.50Q416 126 389.50 48Q363-30 312-30Z"  horiz-adv-x="462" vert-adv-y="1000"  />

      
      <glyph glyph-name="unie1" unicode="&#xe1;" d="M171-36Q146-36 131-23.50Q116-11 87.50 20.50Q59 52 33 82Q12 110 12 135Q12 139 19.50 175.50Q27 212 75 264.50Q123 317 185.50 356.50Q248 396 336 439Q336 470 320 480Q309 486 250 458Q191 430 166 409Q158 406 151 397.50Q144 389 134 383Q124 377 109 381Q98 384 62 417Q26 450 23 461Q20 470 23.50 482.50Q27 495 35.50 500Q44 505 60 509.50Q76 514 80 515Q132 548 188 571.50Q244 595 286 595Q313 595 341.50 568.50Q370 542 389 524Q426 497 451.50 475.50Q477 454 477 428L477 50Q480 42 483 33.50Q486 25 486 15Q486 2 475-9Q464-20 449-18Q398-11 358 2Q318 15 311 30Q308 37 311 44Q314 51 317 58Q320 65 322 75.50Q324 86 324 103Q283 37 249.50 0.50Q216-36 171-36M134 75Q180 116 226 157Q304 252 326 307Q277 288 242 249Q216 217 190 186Q166 162 146 122.50Q126 83 134 75M325 638Q315 634 299 639.50Q283 645 268 651Q237 658 222 663Q207 668 202 678Q199 683 222 715.50Q245 748 247.50 753Q250 758 258.50 782Q267 806 275 807Q297 811 336.50 798.50Q376 786 383 768Q387 759 374.50 745Q362 731 363.50 727Q365 723 353.50 701Q342 679 341 672.50Q340 666 335.50 653.50Q331 641 325 638Z"  horiz-adv-x="510" vert-adv-y="1000"  />

      
      <glyph glyph-name="unie0" unicode="&#xe0;" d="M171-36Q146-36 131-23.50Q116-11 87.50 20.50Q59 52 33 82Q12 110 12 135Q12 139 19.50 175.50Q27 212 75 264.50Q123 317 185.50 356.50Q248 396 336 439Q336 470 320 480Q309 486 250 458Q191 430 166 409Q158 406 151 397.50Q144 389 134 383Q124 377 109 381Q98 384 62 417Q26 450 23 461Q20 470 23.50 482.50Q27 495 35.50 500Q44 505 60 509.50Q76 514 80 515Q132 548 188 571.50Q244 595 286 595Q313 595 341.50 568.50Q370 542 389 524Q426 497 451.50 475.50Q477 454 477 428L477 50Q480 42 483 33.50Q486 25 486 15Q486 2 475-9Q464-20 449-18Q398-11 358 2Q318 15 311 30Q308 37 311 44Q314 51 317 58Q320 65 322 75.50Q324 86 324 103Q283 37 249.50 0.50Q216-36 171-36M134 75Q180 116 226 157Q304 252 326 307Q277 288 242 249Q216 217 190 186Q166 162 146 122.50Q126 83 134 75M340 672Q336 665 324 659.50Q312 654 274 645Q250 637 227 630Q223 630 217 632.50Q211 635 206.50 647Q202 659 201 671Q190 693 177.50 717.50Q165 742 168 748Q168 751 155.50 764.50Q143 778 147 786Q154 803 194.50 815.50Q235 828 255 825Q261 824 267 800.50Q273 777 275 773Q277 769 310 723Q343 677 340 672Z"  horiz-adv-x="510" vert-adv-y="1000"  />

      
      <glyph glyph-name="unie2" unicode="&#xe2;" d="M171-36Q146-36 131-23.50Q116-11 87.50 20.50Q59 52 33 82Q12 110 12 135Q12 139 19.50 175.50Q27 212 75 264.50Q123 317 185.50 356.50Q248 396 336 439Q336 470 320 480Q309 486 250 458Q191 430 166 409Q158 406 151 397.50Q144 389 134 383Q124 377 109 381Q98 384 62 417Q26 450 23 461Q20 470 23.50 482.50Q27 495 35.50 500Q44 505 60 509.50Q76 514 80 515Q132 548 188 571.50Q244 595 286 595Q313 595 341.50 568.50Q370 542 389 524Q426 497 451.50 475.50Q477 454 477 428L477 50Q480 42 483 33.50Q486 25 486 15Q486 2 475-9Q464-20 449-18Q398-11 358 2Q318 15 311 30Q308 37 311 44Q314 51 317 58Q320 65 322 75.50Q324 86 324 103Q283 37 249.50 0.50Q216-36 171-36M134 75Q180 116 226 157Q304 252 326 307Q277 288 242 249Q216 217 190 186Q166 162 146 122.50Q126 83 134 75M448 643Q438 626 402.50 610Q367 594 352 599Q339 604 334 617.50Q329 631 322 638Q315 650 305 667.50Q295 685 258 703Q246 679 237 666Q228 653 224.50 649Q221 645 216.50 627Q212 609 204 603.50Q196 598 168 598Q143 598 119 605Q95 612 91 620Q86 632 120.50 681Q155 730 161.50 749Q168 768 171.50 778.50Q175 789 181.50 795.50Q188 802 236 814Q284 826 308 826Q317 826 322.50 823.50Q328 821 330 806.50Q332 792 351 773Q370 754 399.50 719Q429 684 448 643Z"  horiz-adv-x="510" vert-adv-y="1000"  />

      
      <glyph glyph-name="unie4" unicode="&#xe4;" d="M171-36Q146-36 131-23.50Q116-11 87.50 20.50Q59 52 33 82Q12 110 12 135Q12 139 19.50 175.50Q27 212 75 264.50Q123 317 185.50 356.50Q248 396 336 439Q336 470 320 480Q309 486 250 458Q191 430 166 409Q158 406 151 397.50Q144 389 134 383Q124 377 109 381Q98 384 62 417Q26 450 23 461Q20 470 23.50 482.50Q27 495 35.50 500Q44 505 60 509.50Q76 514 80 515Q132 548 188 571.50Q244 595 286 595Q313 595 341.50 568.50Q370 542 389 524Q426 497 451.50 475.50Q477 454 477 428L477 50Q480 42 483 33.50Q486 25 486 15Q486 2 475-9Q464-20 449-18Q398-11 358 2Q318 15 311 30Q308 37 311 44Q314 51 317 58Q320 65 322 75.50Q324 86 324 103Q283 37 249.50 0.50Q216-36 171-36M134 75Q180 116 226 157Q304 252 326 307Q277 288 242 249Q216 217 190 186Q166 162 146 122.50Q126 83 134 75M209 632Q198 628 156.50 647Q115 666 110 677Q106 684 120.50 719.50Q135 755 142 766.50Q149 778 162 778Q169 778 185 774Q201 770 213 768Q225 766 233.50 762Q242 758 244 747Q246 738 234 715Q222 692 222 678Q223 666 222 659Q220 645 218 640Q216 635 209 632M377 632Q366 628 324.50 647Q283 666 278 677Q274 684 288.50 719.50Q303 755 310 766.50Q317 778 330 778Q337 778 353 774Q369 770 381 768Q393 766 401.50 762Q410 758 412 747Q414 738 402 715Q390 692 390 678Q391 666 390 659Q388 645 386 640Q384 635 377 632Z"  horiz-adv-x="510" vert-adv-y="1000"  />

      
      <glyph glyph-name="unie3" unicode="&#xe3;" d="M229 665Q218 665 195.50 651Q173 637 157 634Q151 631 145.50 628.50Q140 626 133 629Q118 638 105 653.50Q92 669 77.50 694Q63 719 67 732Q70 741 78.50 744.50Q87 748 121 751Q136 751 164.50 764.50Q193 778 206 778Q228 778 267.50 756Q307 734 323 734Q336 734 350 742.50Q364 751 376 761Q393 769 410 769Q417 769 423 767.50Q429 766 437.50 764Q446 762 464.50 722.50Q483 683 478 664Q474 651 444 651L430 651Q417 651 385 635Q353 619 335 619Q315 619 280 642Q245 665 229 665M171-36Q146-36 131-23.50Q116-11 87.50 20.50Q59 52 33 82Q12 110 12 135Q12 139 19.50 175.50Q27 212 75 264.50Q123 317 185.50 356.50Q248 396 336 439Q336 470 320 480Q309 486 250 458Q191 430 166 409Q158 406 151 397.50Q144 389 134 383Q124 377 109 381Q98 384 62 417Q26 450 23 461Q20 470 23.50 482.50Q27 495 35.50 500Q44 505 60 509.50Q76 514 80 515Q132 548 188 571.50Q244 595 286 595Q313 595 341.50 568.50Q370 542 389 524Q426 497 451.50 475.50Q477 454 477 428L477 50Q480 42 483 33.50Q486 25 486 15Q486 2 475-9Q464-20 449-18Q398-11 358 2Q318 15 311 30Q308 37 311 44Q314 51 317 58Q320 65 322 75.50Q324 86 324 103Q283 37 249.50 0.50Q216-36 171-36M134 75Q180 116 226 157Q304 252 326 307Q277 288 242 249Q216 217 190 186Q166 162 146 122.50Q126 83 134 75Z"  horiz-adv-x="510" vert-adv-y="1000"  />

      
      <glyph glyph-name="unie5" unicode="&#xe5;" d="M179-36Q154-36 139-23.50Q124-11 95.50 20.50Q67 52 41 82Q20 110 20 135Q20 139 27.50 175.50Q35 212 83 264.50Q131 317 193.50 356.50Q256 396 344 439Q344 470 328 480Q317 486 258 458Q199 430 174 409Q166 406 159 397.50Q152 389 142 383Q132 377 117 381Q106 384 70 417Q34 450 31 461Q28 470 31.50 482.50Q35 495 43.50 500Q52 505 68 509.50Q84 514 88 515Q140 548 196 571.50Q252 595 294 595Q321 595 349.50 568.50Q378 542 397 524Q434 497 459.50 475.50Q485 454 485 428L485 50Q488 42 491 33.50Q494 25 494 15Q494 2 483-9Q472-20 457-18Q406-11 366 2Q326 15 319 30Q316 37 319 44Q322 51 325 58Q328 65 330 75.50Q332 86 332 103Q291 37 257.50 0.50Q224-36 179-36M142 75Q188 116 234 157Q312 252 334 307Q285 288 250 249Q224 217 198 186Q174 162 154 122.50Q134 83 142 75M192 802Q211 827 238.50 841Q266 855 296 855Q316 855 332 849.50Q348 844 374 821Q400 798 400 750Q400 709 378 677.50Q356 646 328.50 632Q301 618 269 618Q229 618 197 647Q165 676 165 724Q165 764 192 802M260 764Q239 745 239 721Q239 704 249 696Q259 688 272 688Q288 688 308 704Q330 724 330 747Q330 761 319.50 770Q309 779 296 779Q277 779 260 764Z"  horiz-adv-x="510" vert-adv-y="1000"  />

      
      <glyph glyph-name="unie7" unicode="&#xe7;" d="M248-20Q241-21 197.50-80Q154-139 148.50-146Q143-153 141.50-162.50Q140-172 126-175Q112-178 74.50-156.50Q37-135 37-119Q37-103 50.50-95Q64-87 77.50-70.50Q91-54 109-28.50Q127-3 122 0Q76 30 52 109Q28 188 28 284Q28 411 63.50 507Q99 603 156 603Q207 603 277 575Q347 547 366 521Q385 495 389.50 476.50Q394 458 394 432Q394 418 392.50 401Q391 384 390 364Q390 357 391 345Q392 333 392 328Q392 321 381.50 314.50Q371 308 361 308Q326 308 288 320.50Q250 333 241 360Q237 370 248.50 385Q260 400 259 409Q262 415 262 445Q262 472 257 489Q252 506 240 506Q208 506 187 412Q166 318 166 216Q166 163 173.50 127Q181 91 195 87Q218 82 252 133Q286 184 288 196.50Q290 209 290.50 220.50Q291 232 298 246Q305 260 329 260Q348 258 392.50 237Q437 216 439.50 205Q442 194 442 187Q442 172 435 164L409 137Q383 84 355.50 38.50Q328-7 248-20Z"  horiz-adv-x="450" vert-adv-y="1000"  />

      
      <glyph glyph-name="unie9" unicode="&#xe9;" d="M288-29Q282-32 270-32Q229-32 165-8Q101 16 80 45Q51 82 36.50 136.50Q22 191 22 255Q22 382 75 482Q128 582 213 582Q245 582 293.50 563.50Q342 545 363.50 523Q385 501 394.50 453.50Q404 406 404 361Q404 330 398.50 305Q393 280 382 267Q319 247 269 238.50Q219 230 172 230Q172 180 185 126Q198 72 213 72Q232 72 259 103.50Q286 135 292 154Q294 173 297.50 193Q301 213 311 216Q326 218 373.50 199.50Q421 181 429 168Q438 153 388 76Q338-1 288-29M168 313Q191 313 207.50 317.50Q224 322 235.50 331Q247 340 251.50 371Q256 402 256 434Q256 472 251 474Q233 476 203 420.50Q173 365 168 313M283 620Q273 616 257 621.50Q241 627 226 633Q195 640 180 645Q165 650 160 660Q157 665 179 699Q201 733 210.50 748.50Q220 764 228.50 788Q237 812 245 813Q267 817 306.50 804.50Q346 792 353 774Q357 765 344.50 751Q332 737 333.50 734Q335 731 323.50 707.50Q312 684 299 659Q298 648 293.50 635.50Q289 623 283 620Z"  horiz-adv-x="444" vert-adv-y="1000"  />

      
      <glyph glyph-name="unie8" unicode="&#xe8;" d="M288-29Q282-32 270-32Q229-32 165-8Q101 16 80 45Q51 82 36.50 136.50Q22 191 22 255Q22 382 75 482Q128 582 213 582Q245 582 293.50 563.50Q342 545 363.50 523Q385 501 394.50 453.50Q404 406 404 361Q404 330 398.50 305Q393 280 382 267Q319 247 269 238.50Q219 230 172 230Q172 180 185 126Q198 72 213 72Q232 72 259 103.50Q286 135 292 154Q294 173 297.50 193Q301 213 311 216Q326 218 373.50 199.50Q421 181 429 168Q438 153 388 76Q338-1 288-29M168 313Q191 313 207.50 317.50Q224 322 235.50 331Q247 340 251.50 371Q256 402 256 434Q256 472 251 474Q233 476 203 420.50Q173 365 168 313M310 672Q306 665 294 659.50Q282 654 244 645Q220 637 197 630Q193 630 187 632.50Q181 635 176.50 647Q172 659 171 671Q160 693 147.50 717.50Q135 742 138 748Q138 751 125.50 764.50Q113 778 117 786Q124 803 164.50 815.50Q205 828 225 825Q231 824 237 800.50Q243 777 245 773Q247 769 280 723Q313 677 310 672Z"  horiz-adv-x="444" vert-adv-y="1000"  />

      
      <glyph glyph-name="uniea" unicode="&#xea;" d="M288-29Q282-32 270-32Q229-32 165-8Q101 16 80 45Q51 82 36.50 136.50Q22 191 22 255Q22 382 75 482Q128 582 213 582Q245 582 293.50 563.50Q342 545 363.50 523Q385 501 394.50 453.50Q404 406 404 361Q404 330 398.50 305Q393 280 382 267Q319 247 269 238.50Q219 230 172 230Q172 180 185 126Q198 72 213 72Q232 72 259 103.50Q286 135 292 154Q294 173 297.50 193Q301 213 311 216Q326 218 373.50 199.50Q421 181 429 168Q438 153 388 76Q338-1 288-29M168 313Q191 313 207.50 317.50Q224 322 235.50 331Q247 340 251.50 371Q256 402 256 434Q256 472 251 474Q233 476 203 420.50Q173 365 168 313M406 637Q396 620 360.50 604Q325 588 310 593Q297 598 292 611.50Q287 625 280 632Q273 644 263 661.50Q253 679 216 697Q204 673 195 660Q186 647 182.50 643Q179 639 174.50 621Q170 603 162 597.50Q154 592 126 592Q101 592 77 599Q53 606 49 614Q44 626 78.50 675Q113 724 119.50 743Q126 762 129.50 772.50Q133 783 139.50 789.50Q146 796 194 808Q242 820 266 820Q275 820 280.50 817.50Q286 815 288 800.50Q290 786 309 767Q328 748 357.50 713Q387 678 406 637Z"  horiz-adv-x="444" vert-adv-y="1000"  />

      
      <glyph glyph-name="unieb" unicode="&#xeb;" d="M209 632Q198 628 156.50 647Q115 666 110 677Q106 684 120.50 719.50Q135 755 142 766.50Q149 778 162 778Q169 778 185 774Q201 770 213 768Q225 766 233.50 762Q242 758 244 747Q246 738 234 715Q222 692 222 678Q223 666 222 659Q220 645 218 640Q216 635 209 632M377 632Q366 628 324.50 647Q283 666 278 677Q274 684 288.50 719.50Q303 755 310 766.50Q317 778 330 778Q337 778 353 774Q369 770 381 768Q393 766 401.50 762Q410 758 412 747Q414 738 402 715Q390 692 390 678Q391 666 390 659Q388 645 386 640Q384 635 377 632M288-29Q282-32 270-32Q229-32 165-8Q101 16 80 45Q51 82 36.50 136.50Q22 191 22 255Q22 382 75 482Q128 582 213 582Q245 582 293.50 563.50Q342 545 363.50 523Q385 501 394.50 453.50Q404 406 404 361Q404 330 398.50 305Q393 280 382 267Q319 247 269 238.50Q219 230 172 230Q172 180 185 126Q198 72 213 72Q232 72 259 103.50Q286 135 292 154Q294 173 297.50 193Q301 213 311 216Q326 218 373.50 199.50Q421 181 429 168Q438 153 388 76Q338-1 288-29M168 313Q191 313 207.50 317.50Q224 322 235.50 331Q247 340 251.50 371Q256 402 256 434Q256 472 251 474Q233 476 203 420.50Q173 365 168 313Z"  horiz-adv-x="444" vert-adv-y="1000"  />

      
      <glyph glyph-name="unied" unicode="&#xed;" d="M185-33Q182-34 171-34Q135-34 80-18Q25-2 15 16Q11 22 13.50 28Q16 34 22 44Q28 54 30.50 71Q33 88 33 102L33 522Q31 528 26 538Q21 548 21 556Q21 567 28.50 575Q36 583 43 584.50Q50 586 59 586Q91 586 143 567.50Q195 549 202.50 539Q210 529 210 522Q210 508 202 501.50Q194 495 190 483Q186 471 186 462L186 60Q186 52 198 36.50Q210 21 210 15Q210-4 205-16Q200-28 185-33M175 608Q165 604 149 609.50Q133 615 118 621Q87 628 72 633Q57 638 52 648Q50 652 80 694Q110 736 114 743.50Q118 751 124.50 775.50Q131 800 137 801Q159 805 198.50 792.50Q238 780 245 762Q249 753 236.50 739Q224 725 225.50 722Q227 719 215.50 695.50Q204 672 191 647Q190 636 185.50 623.50Q181 611 175 608Z"  horiz-adv-x="255" vert-adv-y="1000"  />

      
      <glyph glyph-name="uniec" unicode="&#xec;" d="M214 660Q210 653 198 647.50Q186 642 148 633Q124 625 101 618Q97 618 91 620.50Q85 623 80.50 635Q76 647 75 659Q64 681 51.50 705.50Q39 730 42 736Q42 739 29.50 752.50Q17 766 21 774Q28 791 68.50 803.50Q109 816 129 813Q135 812 141 788.50Q147 765 149 761Q151 757 184 711Q217 665 214 660M210 15Q210-4 205-16Q200-28 191-31Q182-34 171-34Q135-34 80-18Q25-2 15 16Q11 22 13.50 28Q16 34 22 44Q28 54 30.50 71Q33 88 33 102L33 522Q31 528 26 538Q21 548 21 556Q21 567 28.50 575Q36 583 43 584.50Q50 586 59 586Q91 586 143 567.50Q195 549 202.50 539Q210 529 210 522Q210 508 202 501.50Q194 495 190 483Q186 471 186 462L186 60Q186 52 198 36.50Q210 21 210 15Z"  horiz-adv-x="237" vert-adv-y="1000"  />

      
      <glyph glyph-name="uniee" unicode="&#xee;" d="M263-27Q260-28 249-28Q213-28 158-12Q103 4 93 22Q89 28 91.50 34Q94 40 100 50Q106 60 108.50 77Q111 94 111 108L111 528Q109 534 104 544Q99 554 99 562Q99 573 106.50 581Q114 589 121 590.50Q128 592 137 592Q169 592 221 573.50Q273 555 280.50 545Q288 535 288 528Q288 514 280 507.50Q272 501 268 489Q264 477 264 468L264 66Q264 58 276 42.50Q288 27 288 21Q288 2 283-10Q278-22 263-27M370 673Q360 656 324.50 640Q289 624 274 629Q261 634 256 647.50Q251 661 244 668Q237 680 227 697.50Q217 715 180 733Q168 709 159 696Q150 683 146.50 679Q143 675 138.50 657Q134 639 126 633.50Q118 628 90 628Q65 628 41 635Q17 642 13 650Q8 662 42.50 711Q77 760 83.50 779Q90 798 93.50 808.50Q97 819 103.50 825.50Q110 832 158 844Q206 856 230 856Q239 856 244.50 853.50Q250 851 252 836.50Q254 822 273 803Q292 784 321.50 749Q351 714 370 673Z"  horiz-adv-x="396" vert-adv-y="1000"  />

      
      <glyph glyph-name="unief" unicode="&#xef;" d="M113 632Q102 628 60.50 647Q19 666 14 677Q10 684 24.50 719.50Q39 755 46 766.50Q53 778 66 778Q73 778 89 774Q105 770 117 768Q129 766 137.50 762Q146 758 148 747Q150 738 138 715Q126 692 126 678Q127 666 126 659Q124 645 122 640Q120 635 113 632M281 632Q270 628 228.50 647Q187 666 182 677Q178 684 192.50 719.50Q207 755 214 766.50Q221 778 234 778Q241 778 257 774Q273 770 285 768Q297 766 305.50 762Q314 758 316 747Q318 738 306 715Q294 692 294 678Q295 666 294 659Q292 645 290 640Q288 635 281 632M239-27Q236-28 225-28Q189-28 134-12Q79 4 69 22Q65 28 67.50 34Q70 40 76 50Q82 60 84.50 77Q87 94 87 108L87 528Q85 534 80 544Q75 554 75 562Q75 573 82.50 581Q90 589 97 590.50Q104 592 113 592Q145 592 197 573.50Q249 555 256.50 545Q264 535 264 528Q264 514 256 507.50Q248 501 244 489Q240 477 240 468L240 66Q240 58 252 42.50Q264 27 264 21Q264 2 259-10Q254-22 239-27Z"  horiz-adv-x="330" vert-adv-y="1000"  />

      
      <glyph glyph-name="unif1" unicode="&#xf1;" d="M193 671Q182 671 159.50 657Q137 643 121 640Q115 637 109.50 634.50Q104 632 97 635Q82 644 69 659.50Q56 675 41.50 700Q27 725 31 738Q34 747 42.50 750.50Q51 754 85 757Q100 757 128.50 770.50Q157 784 170 784Q192 784 231.50 762Q271 740 287 740Q300 740 314 748.50Q328 757 340 767Q357 775 374 775Q381 775 387 773.50Q393 772 401.50 770Q410 768 428.50 728.50Q447 689 442 670Q438 657 408 657L394 657Q381 657 349 641Q317 625 299 625Q279 625 244 648Q209 671 193 671M165-26Q162-27 152-27Q122-27 72.50-15.50Q23-4 17 4.50Q11 13 11 23Q11 29 13.50 36.50Q16 44 24.50 51.50Q33 59 33 66L33 531Q33 539 25.50 552.50Q18 566 20 574Q25 594 51 601Q69 605 129.50 590Q190 575 194 564Q198 553 198 545Q198 539 196 533.50Q194 528 192 521.50Q190 515 188 497.50Q186 480 186 470L186 460Q201 509 231 552.50Q261 596 294 596Q330 596 382.50 573Q435 550 450 516.50Q465 483 468.50 362Q472 241 472 145L472 57Q480 38 480 29Q480 21 478 8Q476-5 472.50-11Q469-17 459-21.50Q449-26 432-26Q396-26 350-15.50Q304-5 297 3Q290 11 290 19Q290 24 292.50 31.50Q295 39 299 48Q307 58 313 66.50Q319 75 319 90Q319 103 319 137.50Q319 172 319 215L319 260L319 300Q319 393 317.50 439Q316 485 313 487Q299 492 242.50 394.50Q186 297 186 246L186 59Q198 47 198 30Q198 22 194.50 3.50Q191-15 165-26Z"  horiz-adv-x="499" vert-adv-y="1000"  />

      
      <glyph glyph-name="unif3" unicode="&#xf3;" d="M293-40Q275-38 244.50-31Q214-24 200.50-22Q187-20 172.50-17Q158-14 118-2.50Q78 9 45.50 87Q13 165 13 269Q13 372 46.50 459.50Q80 547 118 568.50Q156 590 177 590Q193 590 215 585.50Q237 581 255 577Q295 574 319 572.50Q343 571 376 555.50Q409 540 437.50 464Q466 388 466 290Q466 161 421.50 60Q377-41 305-41Q297-41 293-40M230 61Q262 54 286.50 131Q311 208 311 301Q311 365 296 413Q281 461 250 474Q222 487 195.50 418.50Q169 350 169 285Q169 213 187 140Q205 67 230 61M289 620Q279 616 263 621.50Q247 627 232 633Q201 640 186 645Q171 650 166 660Q164 664 194 706Q224 748 228 755.50Q232 763 238.50 787.50Q245 812 251 813Q273 817 312.50 804.50Q352 792 359 774Q363 765 350.50 751Q338 737 339.50 734Q341 731 329.50 707.50Q318 684 305 659Q304 648 299.50 635.50Q295 623 289 620Z"  horiz-adv-x="480" vert-adv-y="1000"  />

      
      <glyph glyph-name="unif2" unicode="&#xf2;" d="M293-40Q275-38 244.50-31Q214-24 200.50-22Q187-20 172.50-17Q158-14 118-2.50Q78 9 45.50 87Q13 165 13 269Q13 372 46.50 459.50Q80 547 118 568.50Q156 590 177 590Q193 590 215 585.50Q237 581 255 577Q295 574 319 572.50Q343 571 376 555.50Q409 540 437.50 464Q466 388 466 290Q466 161 421.50 60Q377-41 305-41Q297-41 293-40M230 61Q262 54 286.50 131Q311 208 311 301Q311 365 296 413Q281 461 250 474Q222 487 195.50 418.50Q169 350 169 285Q169 213 187 140Q205 67 230 61M340 666Q336 659 324 653.50Q312 648 274 639Q250 631 227 624Q223 624 217 626.50Q211 629 206.50 641Q202 653 201 665Q190 687 177.50 711.50Q165 736 168 742Q168 745 155.50 758.50Q143 772 147 780Q154 797 194.50 809.50Q235 822 255 819Q261 818 267 794.50Q273 771 275 767Q277 763 310 717Q343 671 340 666Z"  horiz-adv-x="480" vert-adv-y="1000"  />

      
      <glyph glyph-name="unif4" unicode="&#xf4;" d="M293-40Q275-38 244.50-31Q214-24 200.50-22Q187-20 172.50-17Q158-14 118-2.50Q78 9 45.50 87Q13 165 13 269Q13 372 46.50 459.50Q80 547 118 568.50Q156 590 177 590Q193 590 215 585.50Q237 581 255 577Q295 574 319 572.50Q343 571 376 555.50Q409 540 437.50 464Q466 388 466 290Q466 161 421.50 60Q377-41 305-41Q297-41 293-40M230 61Q262 54 286.50 131Q311 208 311 301Q311 365 296 413Q281 461 250 474Q222 487 195.50 418.50Q169 350 169 285Q169 213 187 140Q205 67 230 61M424 655Q414 638 378.50 622Q343 606 328 611Q315 616 310 629.50Q305 643 298 650Q291 662 281 679.50Q271 697 234 715Q222 691 213 678Q204 665 200.50 661Q197 657 192.50 639Q188 621 180 615.50Q172 610 144 610Q119 610 95 617Q71 624 67 632Q62 644 96.50 693Q131 742 137.50 761Q144 780 147.50 790.50Q151 801 157.50 807.50Q164 814 212 826Q260 838 284 838Q293 838 298.50 835.50Q304 833 306 818.50Q308 804 327 785Q346 766 375.50 731Q405 696 424 655Z"  horiz-adv-x="480" vert-adv-y="1000"  />

      
      <glyph glyph-name="unif6" unicode="&#xf6;" d="M209 632Q198 628 156.50 647Q115 666 110 677Q106 684 120.50 719.50Q135 755 142 766.50Q149 778 162 778Q169 778 185 774Q201 770 213 768Q225 766 233.50 762Q242 758 244 747Q246 738 234 715Q222 692 222 678Q223 666 222 659Q220 645 218 640Q216 635 209 632M377 632Q366 628 324.50 647Q283 666 278 677Q274 684 288.50 719.50Q303 755 310 766.50Q317 778 330 778Q337 778 353 774Q369 770 381 768Q393 766 401.50 762Q410 758 412 747Q414 738 402 715Q390 692 390 678Q391 666 390 659Q388 645 386 640Q384 635 377 632M293-40Q275-38 244.50-31Q214-24 200.50-22Q187-20 172.50-17Q158-14 118-2.50Q78 9 45.50 87Q13 165 13 269Q13 372 46.50 459.50Q80 547 118 568.50Q156 590 177 590Q193 590 215 585.50Q237 581 255 577Q295 574 319 572.50Q343 571 376 555.50Q409 540 437.50 464Q466 388 466 290Q466 161 421.50 60Q377-41 305-41Q297-41 293-40M230 61Q262 54 286.50 131Q311 208 311 301Q311 365 296 413Q281 461 250 474Q222 487 195.50 418.50Q169 350 169 285Q169 213 187 140Q205 67 230 61Z"  horiz-adv-x="480" vert-adv-y="1000"  />

      
      <glyph glyph-name="unif5" unicode="&#xf5;" d="M193 671Q182 671 159.50 657Q137 643 121 640Q115 637 109.50 634.50Q104 632 97 635Q82 644 69 659.50Q56 675 41.50 700Q27 725 31 738Q34 747 42.50 750.50Q51 754 85 757Q100 757 128.50 770.50Q157 784 170 784Q192 784 231.50 762Q271 740 287 740Q300 740 314 748.50Q328 757 340 767Q357 775 374 775Q381 775 387 773.50Q393 772 401.50 770Q410 768 428.50 728.50Q447 689 442 670Q438 657 408 657L394 657Q381 657 349 644Q317 631 299 631Q279 631 244.50 651Q210 671 193 671M293-40Q275-38 244.50-31Q214-24 200.50-22Q187-20 172.50-17Q158-14 118-2.50Q78 9 45.50 87Q13 165 13 269Q13 372 46.50 459.50Q80 547 118 568.50Q156 590 177 590Q193 590 215 585.50Q237 581 255 577Q295 574 319 572.50Q343 571 376 555.50Q409 540 437.50 464Q466 388 466 290Q466 161 421.50 60Q377-41 305-41Q297-41 293-40M230 61Q262 54 286.50 131Q311 208 311 301Q311 365 296 413Q281 461 250 474Q222 487 195.50 418.50Q169 350 169 285Q169 213 187 140Q205 67 230 61Z"  horiz-adv-x="480" vert-adv-y="1000"  />

      
      <glyph glyph-name="unifa" unicode="&#xfa;" d="M331 594Q334 595 344 595Q374 595 423.50 583.50Q473 572 479 564Q485 556 485 545Q485 535 482.50 529.50Q480 524 471.50 516.50Q463 509 463 502L463 37Q463 29 470.50 15.50Q478 2 476-6Q471-26 445-33Q427-37 366.50-22Q306-7 302 4Q298 15 298 23Q298 29 300 34.50Q302 40 304 46.50Q306 53 308 70.50Q310 88 310 98L310 108Q295 59 265 15.50Q235-28 202-28Q166-28 113.50-5Q61 18 48.50 47Q36 76 30 189Q24 302 24 423L24 511Q16 530 16 539Q16 547 18 560Q20 573 23.50 579Q27 585 37 589.50Q47 594 64 594Q100 594 146 583.50Q192 573 199 565Q206 557 206 549Q206 544 203.50 536.50Q201 529 197 520Q189 510 183 501.50Q177 493 177 478Q177 465 177 430.50Q177 396 177 353Q177 264 177.50 173.50Q178 83 183 81Q197 76 253.50 173.50Q310 271 310 322L310 509Q298 521 298 538Q298 546 301.50 564.50Q305 583 331 594M277 626Q267 622 251 627.50Q235 633 220 639Q189 646 174 651Q159 656 154 666Q152 670 182 712Q212 754 216 761.50Q220 769 226.50 793.50Q233 818 239 819Q261 823 300.50 810.50Q340 798 347 780Q351 771 338.50 757Q326 743 327.50 740Q329 737 317.50 713.50Q306 690 293 665Q292 654 287.50 641.50Q283 629 277 626Z"  horiz-adv-x="499" vert-adv-y="1000"  />

      
      <glyph glyph-name="unif9" unicode="&#xf9;" d="M331 594Q334 595 344 595Q374 595 423.50 583.50Q473 572 479 564Q485 556 485 545Q485 535 482.50 529.50Q480 524 471.50 516.50Q463 509 463 502L463 37Q463 29 470.50 15.50Q478 2 476-6Q471-26 445-33Q427-37 366.50-22Q306-7 302 4Q298 15 298 23Q298 29 300 34.50Q302 40 304 46.50Q306 53 308 70.50Q310 88 310 98L310 108Q295 59 265 15.50Q235-28 202-28Q166-28 113.50-5Q61 18 48.50 47Q36 76 30 189Q24 302 24 423L24 511Q16 530 16 539Q16 547 18 560Q20 573 23.50 579Q27 585 37 589.50Q47 594 64 594Q100 594 146 583.50Q192 573 199 565Q206 557 206 549Q206 544 203.50 536.50Q201 529 197 520Q189 510 183 501.50Q177 493 177 478Q177 465 177 430.50Q177 396 177 353Q177 264 177.50 173.50Q178 83 183 81Q197 76 253.50 173.50Q310 271 310 322L310 509Q298 521 298 538Q298 546 301.50 564.50Q305 583 331 594M340 666Q336 659 324 653.50Q312 648 274 639Q250 631 227 624Q223 624 217 626.50Q211 629 206.50 641Q202 653 201 665Q190 687 177.50 711.50Q165 736 168 742Q168 745 155.50 758.50Q143 772 147 780Q154 797 194.50 809.50Q235 822 255 819Q261 818 267 794.50Q273 771 275 767Q277 763 310 717Q343 671 340 666Z"  horiz-adv-x="499" vert-adv-y="1000"  />

      
      <glyph glyph-name="unifb" unicode="&#xfb;" d="M331 594Q334 595 344 595Q374 595 423.50 583.50Q473 572 479 564Q485 556 485 545Q485 535 482.50 529.50Q480 524 471.50 516.50Q463 509 463 502L463 37Q463 29 470.50 15.50Q478 2 476-6Q471-26 445-33Q427-37 366.50-22Q306-7 302 4Q298 15 298 23Q298 29 300 34.50Q302 40 304 46.50Q306 53 308 70.50Q310 88 310 98L310 108Q295 59 265 15.50Q235-28 202-28Q166-28 113.50-5Q61 18 48.50 47Q36 76 30 189Q24 302 24 423L24 511Q16 530 16 539Q16 547 18 560Q20 573 23.50 579Q27 585 37 589.50Q47 594 64 594Q100 594 146 583.50Q192 573 199 565Q206 557 206 549Q206 544 203.50 536.50Q201 529 197 520Q189 510 183 501.50Q177 493 177 478Q177 465 177 430.50Q177 396 177 353Q177 264 177.50 173.50Q178 83 183 81Q197 76 253.50 173.50Q310 271 310 322L310 509Q298 521 298 538Q298 546 301.50 564.50Q305 583 331 594M424 661Q414 644 378.50 628Q343 612 328 617Q315 622 310 635.50Q305 649 298 656Q291 668 281 685.50Q271 703 234 721Q222 697 213 684Q204 671 200.50 667Q197 663 192.50 645Q188 627 180 621.50Q172 616 144 616Q119 616 95 623Q71 630 67 638Q62 650 96.50 699Q131 748 137.50 767Q144 786 147.50 796.50Q151 807 157.50 813.50Q164 820 212 832Q260 844 284 844Q293 844 298.50 841.50Q304 839 306 824.50Q308 810 327 791Q346 772 375.50 737Q405 702 424 661Z"  horiz-adv-x="499" vert-adv-y="1000"  />

      
      </font>
</defs>
</svg>
